<svg id="Слой_1" data-name="Слой 1" xmlns="http://www.w3.org/2000/svg" xmlns:xlink="http://www.w3.org/1999/xlink" viewBox="0 0 421.85583 283.54151"><defs><style>.cls-1{fill:#163342;}.cls-2{fill:#1c4154;}.cls-3{fill:url(#linear-gradient);}.cls-4{opacity:0.3;}.cls-5,.cls-66{fill:#fff;}.cls-6{fill:url(#linear-gradient-2);}.cls-7{fill:#078e74;}.cls-8{fill:#07937c;}.cls-9{fill:url(#linear-gradient-3);}.cls-10{fill:url(#linear-gradient-4);}.cls-11{fill:url(#linear-gradient-5);}.cls-12,.cls-67{fill:#89e5d3;}.cls-13{fill:#a1a1a1;}.cls-14{fill:#2cc073;}.cls-15{fill:#995d31;}.cls-16{fill:#2f4563;}.cls-17{fill:#eea886;}.cls-18{fill:#285173;}.cls-19{fill:#23344a;}.cls-20{fill:url(#linear-gradient-6);}.cls-21{fill:#29e57e;}.cls-22{fill:#db9c7c;}.cls-23{fill:#32658f;}.cls-24{fill:#3f74a0;}.cls-25{fill:#a77860;}.cls-26{fill:#e6d3cc;}.cls-27{fill:url(#linear-gradient-7);}.cls-28{fill:url(#linear-gradient-8);}.cls-29{fill:url(#linear-gradient-9);}.cls-30{fill:url(#linear-gradient-10);}.cls-31{fill:url(#linear-gradient-11);}.cls-32{fill:url(#linear-gradient-12);}.cls-33{fill:url(#linear-gradient-13);}.cls-34{fill:url(#linear-gradient-14);}.cls-35{fill:url(#linear-gradient-15);}.cls-36{fill:url(#linear-gradient-16);}.cls-37{fill:url(#linear-gradient-17);}.cls-38{fill:#eea987;}.cls-39{fill:#202338;}.cls-40{fill:#1c4054;}.cls-41{fill:#f8bb66;}.cls-42{fill:url(#linear-gradient-18);}.cls-43{fill:url(#linear-gradient-19);}.cls-44{fill:url(#linear-gradient-20);}.cls-45{fill:url(#linear-gradient-21);}.cls-46{fill:#8bfce6;}.cls-47{fill:#6dc9b8;}.cls-48{fill:#252e3b;}.cls-49{fill:#eddad3;}.cls-50{fill:#1e1e1e;}.cls-51{fill:#272626;}.cls-52{fill:#c27e5d;}.cls-53{fill:#141623;}.cls-54{fill:#326ea0;}.cls-55{fill:url(#linear-gradient-22);}.cls-56{fill:url(#linear-gradient-23);}.cls-57{fill:url(#linear-gradient-24);}.cls-58{fill:url(#linear-gradient-25);}.cls-59{opacity:0.73;fill:url(#linear-gradient-26);}.cls-60{fill:#e8734d;}.cls-61{fill:#193247;}.cls-62{fill:#2a617d;}.cls-63{fill:#d4d8e8;}.cls-64{fill:#a9adba;}.cls-65{fill:#215b8a;}.cls-66{stroke:#89e5d3;stroke-miterlimit:10;}.cls-67{font-size:15px;font-family:MyriadPro-Bold, Myriad Pro;font-weight:700;}</style><linearGradient id="linear-gradient" x1="82.45142" y1="76.28001" x2="128.70897" y2="76.28001" gradientUnits="userSpaceOnUse"><stop offset="0" stop-color="#046152"/><stop offset="0.22968" stop-color="#096852"/><stop offset="0.56878" stop-color="#167c53"/><stop offset="0.77901" stop-color="#208c54"/></linearGradient><linearGradient id="linear-gradient-2" x1="70.63264" y1="95.97949" x2="133.58338" y2="95.97949" xlink:href="#linear-gradient"/><linearGradient id="linear-gradient-3" x1="283.88079" y1="142.03806" x2="359.50147" y2="142.03806" gradientUnits="userSpaceOnUse"><stop offset="0" stop-color="#046152"/><stop offset="0.13355" stop-color="#076855"/><stop offset="0.33131" stop-color="#0f7c5b"/><stop offset="0.56763" stop-color="#1d9d67"/><stop offset="0.77901" stop-color="#2cc073"/></linearGradient><linearGradient id="linear-gradient-4" x1="287.00442" y1="124.98794" x2="319.71479" y2="124.98794" xlink:href="#linear-gradient"/><linearGradient id="linear-gradient-5" x1="77.37565" y1="141.33961" x2="125.04703" y2="141.33961" gradientTransform="translate(412.33777 282.67923) rotate(-180)" gradientUnits="userSpaceOnUse"><stop offset="0" stop-color="#c2c2c2"/><stop offset="1" stop-color="#dedede"/></linearGradient><linearGradient id="linear-gradient-6" x1="72.65253" y1="213.6743" x2="86.01193" y2="213.6743" gradientTransform="matrix(1, 0, 0, 1, 0, 0)" xlink:href="#linear-gradient-5"/><linearGradient id="linear-gradient-7" x1="27.05923" y1="177.7485" x2="34.35423" y2="177.7485" gradientTransform="matrix(1, 0, 0, 1, 0, 0)" xlink:href="#linear-gradient-5"/><linearGradient id="linear-gradient-8" x1="305.12663" y1="236.40575" x2="364.86883" y2="236.40575" gradientUnits="userSpaceOnUse"><stop offset="0" stop-color="#89e5d3"/><stop offset="0.10401" stop-color="#82e0ce"/><stop offset="0.25804" stop-color="#6ed1bf"/><stop offset="0.44313" stop-color="#4db8a7"/><stop offset="0.65055" stop-color="#209786"/><stop offset="0.77901" stop-color="#007f6f"/></linearGradient><linearGradient id="linear-gradient-9" x1="312.26948" y1="237.14451" x2="372.01258" y2="237.14451" gradientTransform="matrix(1, 0, 0, -1, 0, 474.28903)" xlink:href="#linear-gradient-8"/><linearGradient id="linear-gradient-10" x1="306.08763" y1="221.89985" x2="365.82973" y2="221.89985" xlink:href="#linear-gradient-8"/><linearGradient id="linear-gradient-11" x1="312.26948" y1="222.63866" x2="372.01258" y2="222.63866" gradientTransform="matrix(1, 0, 0, -1, 0, 445.27733)" xlink:href="#linear-gradient-8"/><linearGradient id="linear-gradient-12" x1="308.32583" y1="207.39355" x2="368.06903" y2="207.39355" xlink:href="#linear-gradient-8"/><linearGradient id="linear-gradient-13" x1="311.41978" y1="208.13181" x2="371.16198" y2="208.13181" gradientTransform="matrix(1, 0, 0, -1, 0, 416.26363)" xlink:href="#linear-gradient-8"/><linearGradient id="linear-gradient-14" x1="305.12663" y1="192.88715" x2="364.86883" y2="192.88715" xlink:href="#linear-gradient-8"/><linearGradient id="linear-gradient-15" x1="312.53018" y1="193.62596" x2="372.27338" y2="193.62596" gradientTransform="matrix(1, 0, 0, -1, 0, 387.25193)" xlink:href="#linear-gradient-8"/><linearGradient id="linear-gradient-16" x1="314.82218" y1="251.35006" x2="374.56538" y2="251.35006" gradientTransform="matrix(1, 0, 0, -1, 0, 502.70013)" xlink:href="#linear-gradient-8"/><linearGradient id="linear-gradient-17" x1="1067.17086" y1="-1326.11064" x2="1127.17269" y2="-1326.11064" gradientTransform="translate(-989.04652 1270.63205) rotate(11.36233)" xlink:href="#linear-gradient-8"/><linearGradient id="linear-gradient-18" x1="355.40618" y1="131.13277" x2="389.59156" y2="131.13277" xlink:href="#linear-gradient-8"/><linearGradient id="linear-gradient-19" x1="328.2066" y1="132.84496" x2="356.66788" y2="132.84496" gradientUnits="userSpaceOnUse"><stop offset="0" stop-color="#89e5d3"/><stop offset="0.11517" stop-color="#90e7d6"/><stop offset="0.28567" stop-color="#a4ebdd"/><stop offset="0.49053" stop-color="#c5f2e9"/><stop offset="0.72032" stop-color="#f2fcfa"/><stop offset="0.77901" stop-color="#fff"/></linearGradient><linearGradient id="linear-gradient-20" x1="360.46178" y1="130.36911" x2="389.5916" y2="130.36911" xlink:href="#linear-gradient-8"/><linearGradient id="linear-gradient-21" x1="346.37878" y1="131.65303" x2="365.99498" y2="131.65303" xlink:href="#linear-gradient-19"/><linearGradient id="linear-gradient-22" x1="124.26648" y1="191.75893" x2="144.06772" y2="191.75893" xlink:href="#linear-gradient-8"/><linearGradient id="linear-gradient-23" x1="108.51093" y1="192.75051" x2="124.99748" y2="192.75051" xlink:href="#linear-gradient-19"/><linearGradient id="linear-gradient-24" x1="127.19468" y1="191.31641" x2="144.0677" y2="191.31641" xlink:href="#linear-gradient-8"/><linearGradient id="linear-gradient-25" x1="119.03748" y1="192.05983" x2="130.39928" y2="192.05983" xlink:href="#linear-gradient-19"/><linearGradient id="linear-gradient-26" x1="173.34243" y1="206.92525" x2="295.99193" y2="206.92525" gradientUnits="userSpaceOnUse"><stop offset="0" stop-color="#d7e3f5"/><stop offset="1" stop-color="#f2fffe"/></linearGradient></defs><title>Banner</title><path class="cls-1" d="M159.30218,272.75921s-1.6553,5.0088-1.5679,6.0977c.0869,1.0889,6.3154,1.1328,6.3154,1.1328l2.0469-2.918Z" transform="translate(-4.96505 -7.99171)"/><path class="cls-2" d="M157.40808,277.73581a7.36873,7.36873,0,0,0-1.5576,2.7774c-.084,1.0527-1.8935,5.6826-1.2202,6.8183.6733,1.1367,5.9766,1.3047,8.6279.8838,2.6519-.4209,8.4175.4629,9.0069-.6728.5893-1.1368.9257-2.794-.7998-3.4385s-5.6817-2.3281-6.397-4.0957C164.35248,278.24071,157.40808,277.73581,157.40808,277.73581Z" transform="translate(-4.96505 -7.99171)"/><path class="cls-3" d="M126.39048,88.76751c-7.5419,9.8091-.1049,39.8003,1.0372,44.1846.0952.3506.1445.5386.1445.5386s-.5762-.333-1.5698-.9575c-6.5245-4.1338-30.9214-21.0879-25.4956-40.5049,6.2558-22.3623-6.6221-17.9663-15.7359-39.0078-9.1186-21.041,11.5913-33.9512,11.5913-33.9512C120.43838,37.35011,134.53508,78.17581,126.39048,88.76751Z" transform="translate(-4.96505 -7.99171)"/><g class="cls-4"><path class="cls-5" d="M127.57218,133.49071s-.5762-.333-1.5698-.9575c-.2554-.3975-.5113-.7993-.7671-1.2017-5.0074-7.8979-11.0982-18.6606-11.689-25.0908a98.03368,98.03368,0,0,1,.0083-12.6255c.3814-9.0181.7764-18.3467-3.667-23.5161-6.7925-7.8862-7.0171-21.2012-7.0205-21.7656l.9927-.0118c0,.1363.2275,13.5215,6.7778,21.1343,4.7031,5.4595,4.2998,14.9864,3.9102,24.2032a97.02778,97.02778,0,0,0-.0137,12.4902c.5859,6.3198,6.9575,17.647,12.8936,26.8027C127.52288,133.30271,127.57218,133.49071,127.57218,133.49071Z" transform="translate(-4.96505 -7.99171)"/></g><path class="cls-6" d="M128.11368,113.31691c-2.7153,10.6806,3.0434,17.1455,4.9126,18.9062.3423.3247.5571.4888.5571.4888a9.47743,9.47743,0,0,1-1.6821-.1074c-8.0957-1.1338-28.9819-10.6573-31.4356-24.3047-2.6484-14.7349-14.706-6.5689-24.6709-18.8418-13.5395-16.6734,3.8355-30.2163,3.8355-30.2163-3.7158,7.0405,7.6079,24.3071,21.9014,27.7495C115.829,90.437,131.32848,100.65721,128.11368,113.31691Z" transform="translate(-4.96505 -7.99171)"/><g class="cls-4"><path class="cls-5" d="M113.95888,112.41651c1.6611,5.1748,3.2266,10.0586,7.5273,12.1938a72.46089,72.46089,0,0,1,11.5401,7.6128c.3423.3247.5571.4888.5571.4888a9.47743,9.47743,0,0,1-1.6821-.1074,69.40279,69.40279,0,0,0-10.8604-7.1075c-4.6704-2.3193-6.2998-7.3994-8.0254-12.7773-1.957-6.0972-3.9824-12.4077-10.6743-15.2266-12.7827-5.3769-19.3286-12.7617-19.396-12.8349l.7486-.6568c.06.0738,6.4751,7.2935,19.0327,12.5806C109.84068,99.57421,111.93738,106.10251,113.95888,112.41651Z" transform="translate(-4.96505 -7.99171)"/></g><path class="cls-7" d="M62.02628,71.66161l-.0313-.4956c.0796-.0054,7.9595-.5879,10.6817-7.7944a33.47631,33.47631,0,0,0,1.373-5.376c1.2515-6.3106,2.5459-12.836,14.8311-17.2813,7.8222-2.8305,13.6401-2.3442,18.3154-1.9541,7.1743.5996,11.9155.9951,17.9629-11.001l.4434.2237c-6.1983,12.2954-11.0713,11.8887-18.4473,11.2724-4.627-.3862-10.3857-.8671-18.1055,1.9258-12.0215,4.3501-13.2881,10.7359-14.5132,16.9112a33.90976,33.90976,0,0,1-1.395,5.4545C70.30358,71.05861,62.10878,71.65621,62.02628,71.66161Z" transform="translate(-4.96505 -7.99171)"/><path class="cls-7" d="M59.93058,70.80661l-13.8071-.3559a3.48429,3.48429,0,0,0-2.188.7021L6.34858,99.53711a3.48172,3.48172,0,0,0-.6802,4.8764l10.3706,13.7334a3.48149,3.48149,0,0,0,4.8769.6802l37.587-28.3838a3.48563,3.48563,0,0,0,1.2739-1.9121l3.4365-13.3779A3.48172,3.48172,0,0,0,59.93058,70.80661Zm.9243,5.0493a1.863,1.863,0,1,1,.3643-2.6093A1.86282,1.86282,0,0,1,60.85488,75.85591Z" transform="translate(-4.96505 -7.99171)"/><path class="cls-5" d="M25.82322,105.2223a5.48171,5.48171,0,0,1-1.61818.84657,4.398,4.398,0,0,1-1.69983.22162l-.03833-1.83016a1.18465,1.18465,0,0,0,.41038.05708,3.812,3.812,0,0,0,.67568-.05708,4.00754,4.00754,0,0,0,.81083-.22949,3.43515,3.43515,0,0,0,.81611-.46013,1.77354,1.77354,0,0,0,.714-.90641.94551.94551,0,0,0-.1758-.84353.63133.63133,0,0,0-.36249-.24208,1.33775,1.33775,0,0,0-.50113-.01179,3.81738,3.81738,0,0,0-.62673.15266q-.3449.11256-.74849.26084a3.84064,3.84064,0,0,1-1.56637.28442,1.50633,1.50633,0,0,1-1.10526-.65737,2.96441,2.96441,0,0,1-.5818-1.28713A3.2341,3.2341,0,0,1,20.26762,99.2a3.617,3.617,0,0,1,.56839-1.234,4.6164,4.6164,0,0,1,.99754-1.02674,4.01693,4.01693,0,0,1,1.43541-.7166,4.541,4.541,0,0,1,1.34735-.15007l-.00438,1.75254a1.03549,1.03549,0,0,0-.332-.04618,2.78824,2.78824,0,0,0-.54954.048,3.5378,3.5378,0,0,0-.64906.18536,2.62081,2.62081,0,0,0-.63718.35633,1.6719,1.6719,0,0,0-.69963.93474,1.081,1.081,0,0,0,.21984.912.63368.63368,0,0,0,.30613.2294.90476.90476,0,0,0,.41877.02751,2.96375,2.96375,0,0,0,.53955-.13391q.29893-.10076.68479-.25163a6.97417,6.97417,0,0,1,.90945-.29622,2.72263,2.72263,0,0,1,.80342-.08325,1.67069,1.67069,0,0,1,.70266.19581,1.88919,1.88919,0,0,1,.60538.54258,2.97384,2.97384,0,0,1,.605,1.33948,2.89386,2.89386,0,0,1-.08638,1.292,3.5061,3.5061,0,0,1-.62592,1.16806A5.57951,5.57951,0,0,1,25.82322,105.2223Z" transform="translate(-4.96505 -7.99171)"/><path class="cls-5" d="M31.31032,101.10962a2.23607,2.23607,0,0,1-.90508.42565,2.11447,2.11447,0,0,1-.92384-.013,2.49739,2.49739,0,0,1-.87756-.40743,3.47052,3.47052,0,0,1-.75938-.7467,4.18068,4.18068,0,0,1-.70185-1.41541,4.4112,4.4112,0,0,1-.15829-1.513,3.89586,3.89586,0,0,1,.36946-1.40362,2.90159,2.90159,0,0,1,.88194-1.0874A1.87423,1.87423,0,0,1,29.361,94.536a1.74875,1.74875,0,0,1,1.066.33543l-.47719-1.04594,1.333-1.00674,1.989,4.24748a.89773.89773,0,0,0,.1055.20153q.15771.20943.40394.03886l.61762,1.3142c-.10425.11032-.19626.20536-.27567.28656a2.06908,2.06908,0,0,1-.21894.1967,1.14561,1.14561,0,0,1-.66479.26736.65.65,0,0,1-.54213-.29353,2.39039,2.39039,0,0,1-.22547-.42315,3.16156,3.16156,0,0,1-.32363,1.42372A2.881,2.881,0,0,1,31.31032,101.10962Zm-.25959-1.58505a1.435,1.435,0,0,0,.31408-.33891,1.94464,1.94464,0,0,0,.23421-.46585,2.7571,2.7571,0,0,0,.12783-.53391,2.1006,2.1006,0,0,0,.00563-.55089l-.68041-1.43891a1.54159,1.54159,0,0,0-.89633-.46361,1.14942,1.14942,0,0,0-.88462.215,1.57967,1.57967,0,0,0-.49282.62986,2.2247,2.2247,0,0,0-.192.83218,2.85962,2.85962,0,0,0,.10782.88757,2.39622,2.39622,0,0,0,.3951.80262,1.67962,1.67962,0,0,0,.93259.65513A1.16015,1.16015,0,0,0,31.05073,99.52457Z" transform="translate(-4.96505 -7.99171)"/><path class="cls-5" d="M36.70754,97.00256a1.43838,1.43838,0,0,1-.95269.35249,1.057,1.057,0,0,1-.7759-.46888,2.01034,2.01034,0,0,1-.12515-.1867q-.05761-.09687-.12042-.22162l-3.28219-7.03551,1.32331-.99923,3.03842,6.48542a1.23611,1.23611,0,0,0,.0602.11086c.0218.03573.04538.07021.07022.10335a.452.452,0,0,0,.71579.09987,1.19822,1.19822,0,0,0,.22367-.23163,2.20151,2.20151,0,0,0,.19849-.30613l.72669,1.04506a3.6609,3.6609,0,0,1-.50158.69087A4.35413,4.35413,0,0,1,36.70754,97.00256Z" transform="translate(-4.96505 -7.99171)"/><path class="cls-5" d="M40.83157,93.91975a2.875,2.875,0,0,1-1.01459.5081,2.40827,2.40827,0,0,1-1.96585-.32757,3.24945,3.24945,0,0,1-.809-.77162,3.81419,3.81419,0,0,1-.67434-1.42014,4.05571,4.05571,0,0,1-.07325-1.54583,4.19285,4.19285,0,0,1,.51855-1.48563,4.0732,4.0732,0,0,1,1.10312-1.23916,2.77054,2.77054,0,0,1,1.62953-.64468,1.58077,1.58077,0,0,1,1.31768.70006q1.27,1.68148-1.73467,3.95047-.17928.13479-.36812.27781-.18906.1427-.41306.28094l.09728.12908a1.78239,1.78239,0,0,0,.88543.67523,1.09189,1.09189,0,0,0,1.004-.24253,1.96088,1.96088,0,0,0,.60806-.75634,1.82049,1.82049,0,0,0,.164-.95171l1.30286-.468a3.541,3.541,0,0,1-.07066.92026,4.00784,4.00784,0,0,1-.30488.9099,4.32509,4.32509,0,0,1-.51122.82308A3.75654,3.75654,0,0,1,40.83157,93.91975ZM38.4457,88.75326a1.72257,1.72257,0,0,0-.458.51033,1.88845,1.88845,0,0,0-.229.618,2.52584,2.52584,0,0,0-.02742.677,2.95523,2.95523,0,0,0,.14435.68783q.16683-.11.31578-.22287.14913-.11322.30836-.233a7.04792,7.04792,0,0,0,.77332-.6621,2.34377,2.34377,0,0,0,.4244-.55482.90156.90156,0,0,0,.11737-.45576.69279.69279,0,0,0-.14748-.3808.60661.60661,0,0,0-.54562-.26781A1.275,1.275,0,0,0,38.4457,88.75326Z" transform="translate(-4.96505 -7.99171)"/><rect class="cls-8" x="286.26" y="62.52452" width="51.93789" height="2.90717"/><rect class="cls-8" x="286.26" y="51.61768" width="51.93789" height="2.90691"/><path class="cls-9" d="M335.28408,164.03951c-20.3584,4.0479-40.3262,16.8692-43.6641,19.0772-.3193.2119-.4853.3261-.4853.3261s-.2295-.2578-.6133-.7587c-1.9785-2.6065-7.9824-11.8321-6.3682-26.1622,1.9239-17.0859,11.46-23.6533,43.8858-27.2631,23.541-2.6231,23.8642-28.1621,23.8711-28.6255C369.76648,135.24361,352.78608,160.56491,335.28408,164.03951Z" transform="translate(-4.96505 -7.99171)"/><g class="cls-4"><path class="cls-5" d="M299.85338,158.59031c-9.8496,8.5322-8.4902,22.5205-8.2334,24.5264-.3193.2119-.4853.3261-.4853.3261s-.2295-.2578-.6133-.7587c-.3359-3.4307-.9219-16.5909,8.6484-24.8877,5.7334-4.9688,15.126-8.0538,23.417-10.7774,7.5762-2.4912,14.7276-4.8398,17.3594-8.0918l.8096.6631c-2.8242,3.4844-9.7813,5.7715-17.8389,8.4199C314.71668,150.70261,305.42768,153.75831,299.85338,158.59031Z" transform="translate(-4.96505 -7.99171)"/></g><path class="cls-10" d="M305.63468,145.33051c-5.7324,5.2539-11.5371,9.042-15.1094,7.6885a3.85834,3.85834,0,0,1-.6035-.29c-2.1055-1.251-3.25-4.6778-2.832-11.2237,1.1152-17.4199,11.4101-21.5537,20.6865-27.999,9.1611-6.3603,3.9717-16.5664,3.8369-16.8257C328.44128,118.93311,315.34948,136.41841,305.63468,145.33051Z" transform="translate(-4.96505 -7.99171)"/><g class="cls-4"><path class="cls-5" d="M290.52528,153.019a3.85834,3.85834,0,0,1-.6035-.29c.8105-3.4668,2.7227-10.2198,6.0381-14.1836a65.0252,65.0252,0,0,1,5.418-5.4776c3.747-3.5053,7.621-7.1342,9.9111-12.0234l.5879.273c-2.3467,5.0019-6.2657,8.6713-10.0586,12.2211a63.16338,63.16338,0,0,0-5.3623,5.4209C293.22158,142.82471,291.31338,149.64011,290.52528,153.019Z" transform="translate(-4.96505 -7.99171)"/></g><path class="cls-11" d="M127.24018,28.30371h157.8564a10.2764,10.2764,0,0,1,10.2764,10.2764v205.5195a10.2759,10.2759,0,0,1-10.2759,10.2759h-157.856a10.2763,10.2763,0,0,1-10.2763-10.2763V38.57911A10.2754,10.2754,0,0,1,127.24018,28.30371Z" transform="translate(407.37271 274.68751) rotate(180)"/><rect class="cls-5" x="122.26333" y="6.2895" width="157.8809" height="217.9966"/><path class="cls-12" d="M127.22838,7.99171v21.2319s4.2329,5.9819,9.2871,0h9.2872s4.2329,5.9819,9.2871,0h9.2871s4.2329,5.9819,9.2871,0h9.2871s4.2329,5.9819,9.2871,0h9.2871s4.2329,5.9819,9.2871,0h9.2871s4.2329,5.9819,9.2871,0h9.2871s4.233,5.9819,9.2872,0h9.2871s4.2329,5.9819,9.2871,0h9.2871s4.2324,5.9819,9.2871,0V7.99171Z" transform="translate(-4.96505 -7.99171)"/><path class="cls-8" d="M136.51548,29.22361s4.233,5.9819,9.2872,0V7.99171h-9.2872Z" transform="translate(-4.96505 -7.99171)"/><path class="cls-8" d="M155.08978,29.22361s4.2329,5.9819,9.2871,0V7.99171h-9.2871Z" transform="translate(-4.96505 -7.99171)"/><path class="cls-8" d="M173.664,29.22361s4.2329,5.9819,9.2871,0V7.99171H173.664Z" transform="translate(-4.96505 -7.99171)"/><path class="cls-8" d="M192.23818,29.22361s4.2329,5.9819,9.2871,0V7.99171h-9.2871Z" transform="translate(-4.96505 -7.99171)"/><path class="cls-8" d="M210.81238,29.22361s4.2329,5.9819,9.2871,0V7.99171h-9.2871Z" transform="translate(-4.96505 -7.99171)"/><path class="cls-8" d="M229.38658,29.22361s4.233,5.9819,9.2871,0V7.99171h-9.2871Z" transform="translate(-4.96505 -7.99171)"/><path class="cls-8" d="M247.96088,29.22361s4.2329,5.9819,9.2871,0V7.99171h-9.2871Z" transform="translate(-4.96505 -7.99171)"/><path class="cls-8" d="M266.53508,7.99171v21.2319s4.2324,5.9819,9.2871,0V7.99171Z" transform="translate(-4.96505 -7.99171)"/><path class="cls-7" d="M312.39058,48.7651h32.23583a9.85035,9.85035,0,0,1,9.85035,9.85035v.00091a9.85134,9.85134,0,0,1-9.85134,9.85134H312.39068a9.85134,9.85134,0,0,1-9.85134-9.85134v0a9.85124,9.85124,0,0,1,9.85124-9.85124Z"/><path class="cls-5" d="M321.94616,70.22791a3.72922,3.72922,0,0,1-1.63608-.35264,4.016,4.016,0,0,1-1.25983-.93654A4.34689,4.34689,0,0,1,317.946,66.0658a4.11754,4.11754,0,0,1,.30665-1.57239,4.33631,4.33631,0,0,1,.8435-1.32943,4.02679,4.02679,0,0,1,1.27757-.91907,3.79422,3.79422,0,0,1,1.607-.34122,3.60628,3.60628,0,0,1,1.62472.36419,4.05809,4.05809,0,0,1,1.25437.95387,4.38958,4.38958,0,0,1,.80893,1.341,4.2165,4.2165,0,0,1,.28937,1.52622,4.14489,4.14489,0,0,1-.30074,1.56648,4.27083,4.27083,0,0,1-.83213,1.31806,4.0037,4.0037,0,0,1-1.27212.91315A3.7864,3.7864,0,0,1,321.94616,70.22791Zm-2.38133-4.16211a3.30381,3.30381,0,0,0,.16148,1.02893,2.75413,2.75413,0,0,0,.46818.87876,2.3283,2.3283,0,0,0,.75162.61265,2.32711,2.32711,0,0,0,2.03466-.00568,2.33049,2.33049,0,0,0,.75162-.63017,2.79879,2.79879,0,0,0,.46226-.88445,3.28112,3.28112,0,0,0,.1565-1,3.20765,3.20765,0,0,0-.16787-1.02893,2.8443,2.8443,0,0,0-.47362-.87877,2.2709,2.2709,0,0,0-.75163-.607,2.34176,2.34176,0,0,0-2.0292.0116,2.28954,2.28954,0,0,0-.75163.62448,2.81034,2.81034,0,0,0-.45634.87854A3.28284,3.28284,0,0,0,319.56483,66.0658Z" transform="translate(-4.96505 -7.99171)"/><path class="cls-5" d="M327.18336,70.17014V61.96169h3.48009a2.33011,2.33011,0,0,1,1.046.23682,2.7096,2.7096,0,0,1,.8271.62444,2.96571,2.96571,0,0,1,.54328.87858,2.65229,2.65229,0,0,1,.1961.98844,2.84866,2.84866,0,0,1-.18473,1.01164,2.79977,2.79977,0,0,1-.5205.87285,2.55753,2.55753,0,0,1-.80893.61284,2.34062,2.34062,0,0,1-1.04053.23113H328.779v2.75171Zm1.59559-4.15051h1.84993a.91491.91491,0,0,0,.73434-.35855,1.48468,1.48468,0,0,0,.29435-.97111,1.59573,1.59573,0,0,0-.09234-.56075,1.3682,1.3682,0,0,0-.243-.42177.96459.96459,0,0,0-.35259-.26025,1.03459,1.03459,0,0,0-.41041-.08671H328.779Z" transform="translate(-4.96505 -7.99171)"/><path class="cls-5" d="M340.086,68.77106v1.39908h-5.69988V61.96169h5.59524v1.3988H335.9812v1.97688h3.45689v1.29486H335.9812v2.13883Z" transform="translate(-4.96505 -7.99171)"/><path class="cls-5" d="M342.92959,64.90968v5.26046H341.334V61.96169h1.237l4.27769,5.38737v-5.376h1.596v8.19708h-1.29482Z" transform="translate(-4.96505 -7.99171)"/><path class="cls-13" d="M211.94128,242.70651a5.7727,5.7727,0,1,1-5.7724-5.7724A5.77218,5.77218,0,0,1,211.94128,242.70651Z" transform="translate(-4.96505 -7.99171)"/><path class="cls-14" d="M136.64538,200.42531v.6064h8.2617l1.3472,5.9356,2.3203,10.7724v.3848h12.2222l-.2627,1.0967H149.705v.6074h.6396a1.44,1.44,0,1,0,.9932,0h8.0962a1.43965,1.43965,0,1,0,.9927,0h.5869l.4082-1.7041h1.6055v-.3848l2.8344-13.1601v-.7686h-19.7011l-.7686-3.3857Zm23.2847,19.9209a.8325.8325,0,1,1-.8325.832A.83307.83307,0,0,1,159.93008,220.34621Zm-9.0889,0a.8325.8325,0,1,1-.8325.832A.83307.83307,0,0,1,150.84118,220.34621Zm7.2671-7.5059h-4.6142l-.2696-3.7461h5.1524Zm.9453-3.7461h5.1455l-.8071,3.7461h-4.6074Zm-6.1528-4.5146h5.8003l-.269,3.7461h-5.2623Zm-.4077,3.7461h-5.2559l-.8066-3.7461h5.7934Zm5.5596,5.2832-.2686,3.747h-3.9658l-.2696-3.747Zm-4.9112,3.747h-3.9594l-.8067-3.747h4.4971Zm-4.9477-4.5898-.791-3.6719h5.1455l.269,3.7461h-4.6064Zm16.9775-8.1865-.8066,3.7461h-5.2559l.2691-3.7461Zm-2.7515,12.7763h-3.9594l.269-3.747h4.4971Z" transform="translate(-4.96505 -7.99171)"/><rect class="cls-12" x="135.55483" y="137.1377" width="87.815" height="3.4756"/><rect class="cls-12" x="135.55483" y="146.4365" width="77.2627" height="3.4766"/><path class="cls-12" d="M170.35048,203.71821a4.6074,4.6074,0,1,1-4.6074-4.6084A4.607,4.607,0,0,1,170.35048,203.71821Z" transform="translate(-4.96505 -7.99171)"/><path class="cls-14" d="M169.77288,80.64061h-25.8682a5.2349,5.2349,0,0,1-5.229-5.229V49.54341a5.2349,5.2349,0,0,1,5.229-5.229h25.8682a5.2349,5.2349,0,0,1,5.229,5.229v25.8682A5.2349,5.2349,0,0,1,169.77288,80.64061Zm-25.8682-34.8364a3.74327,3.74327,0,0,0-3.7393,3.7392v25.8682a3.74335,3.74335,0,0,0,3.7393,3.7393h25.8682a3.74327,3.74327,0,0,0,3.7392-3.7393V49.54341a3.74318,3.74318,0,0,0-3.7392-3.7392Z" transform="translate(-4.96505 -7.99171)"/><path class="cls-14" d="M134.45523,62.0342h34.8365a0,0,0,0,1,0,0V67.125a4.7788,4.7788,0,0,1-4.7788,4.7788h-25.2784a4.7793,4.7793,0,0,1-4.7793-4.7793V62.0342A0,0,0,0,1,134.45523,62.0342Z"/><rect class="cls-12" x="174.60613" y="45.0332" width="47.0557" height="2.2949"/><rect class="cls-12" x="174.60613" y="55.3833" width="61.0703" height="2.2954"/><rect class="cls-12" x="174.60613" y="50.208" width="24.1216" height="2.2954"/><path class="cls-14" d="M169.77288,128.65381h-25.8682a5.2349,5.2349,0,0,1-5.229-5.229V97.55661a5.2349,5.2349,0,0,1,5.229-5.229h25.8682a5.2349,5.2349,0,0,1,5.229,5.229v25.8682A5.2349,5.2349,0,0,1,169.77288,128.65381Zm-25.8682-34.8364a3.74359,3.74359,0,0,0-3.7393,3.7392v25.8682a3.74369,3.74369,0,0,0,3.7393,3.7397h25.8682a3.74361,3.74361,0,0,0,3.7392-3.7397V97.55661a3.7435,3.7435,0,0,0-3.7392-3.7392Z" transform="translate(-4.96505 -7.99171)"/><rect class="cls-12" x="174.60613" y="93.0464" width="56.7671" height="2.2949"/><rect class="cls-12" x="174.60613" y="103.3969" width="35.6826" height="2.295"/><rect class="cls-12" x="174.60613" y="98.2217" width="21.7988" height="2.2949"/><path class="cls-14" d="M134.45523,110.0473h34.8365a0,0,0,0,1,0,0v5.0913a4.7789,4.7789,0,0,1-4.7789,4.7789h-25.2783a4.7793,4.7793,0,0,1-4.7793-4.7793v-5.0909A0,0,0,0,1,134.45523,110.0473Z"/><path class="cls-14" d="M189.07608,71.38911a3.08868,3.08868,0,0,0-3.3198.836,3.08792,3.08792,0,0,0-3.3199-.836c-1.9956.7251-1.6381,2.2491-1.6381,2.2491.1547,3.0507,4.958,6.2573,4.958,6.2573s4.6733-3.2188,4.9585-6.2573C190.71478,73.63821,191.07218,72.11421,189.07608,71.38911Z" transform="translate(-4.96505 -7.99171)"/><path class="cls-14" d="M202.997,71.38911a3.08718,3.08718,0,0,0-3.3193.836,3.08894,3.08894,0,0,0-3.3204-.836c-1.9956.7251-1.6381,2.2491-1.6381,2.2491.1547,3.0507,4.9585,6.2573,4.9585,6.2573s4.6728-3.2188,4.958-6.2573C204.63568,73.63821,204.99308,72.11421,202.997,71.38911Z" transform="translate(-4.96505 -7.99171)"/><path class="cls-14" d="M216.64638,71.38911a3.0882,3.0882,0,0,0-3.3198.836,3.0882,3.0882,0,0,0-3.3198-.836c-1.9956.7251-1.6387,2.2491-1.6387,2.2491.1553,3.0507,4.9585,6.2573,4.9585,6.2573s4.6733-3.2188,4.9585-6.2573C218.28508,73.63821,218.642,72.11421,216.64638,71.38911Z" transform="translate(-4.96505 -7.99171)"/><path class="cls-14" d="M230.29578,71.38911a3.0882,3.0882,0,0,0-3.3198.836,3.0882,3.0882,0,0,0-3.3198-.836c-1.9956.7251-1.6387,2.2491-1.6387,2.2491.1553,3.0507,4.9585,6.2573,4.9585,6.2573s4.6733-3.2188,4.9585-6.2573C231.93448,73.63821,232.29138,72.11421,230.29578,71.38911Z" transform="translate(-4.96505 -7.99171)"/><path class="cls-14" d="M244.04968,71.38911a3.0882,3.0882,0,0,0-3.3198.836,3.0882,3.0882,0,0,0-3.3198-.836c-1.9956.7251-1.6387,2.2491-1.6387,2.2491.1553,3.0507,4.9585,6.2573,4.9585,6.2573s4.6733-3.2188,4.9585-6.2573C245.68838,73.63821,246.04528,72.11421,244.04968,71.38911Z" transform="translate(-4.96505 -7.99171)"/><path class="cls-14" d="M189.07608,120.07371a3.08947,3.08947,0,0,0-3.3198.8364,3.08871,3.08871,0,0,0-3.3199-.8364c-1.9956.7256-1.6381,2.2495-1.6381,2.2495.1547,3.0508,4.958,6.2573,4.958,6.2573s4.6733-3.2192,4.9585-6.2573C190.71478,122.32321,191.07218,120.79931,189.07608,120.07371Z" transform="translate(-4.96505 -7.99171)"/><path class="cls-14" d="M202.997,120.07371a3.088,3.088,0,0,0-3.3193.8364,3.08973,3.08973,0,0,0-3.3204-.8364c-1.9956.7256-1.6381,2.2495-1.6381,2.2495.1547,3.0508,4.9585,6.2573,4.9585,6.2573s4.6728-3.2192,4.958-6.2573C204.63568,122.32321,204.99308,120.79931,202.997,120.07371Z" transform="translate(-4.96505 -7.99171)"/><path class="cls-14" d="M216.64638,120.07371a3.089,3.089,0,0,0-3.3198.8364,3.089,3.089,0,0,0-3.3198-.8364c-1.9956.7256-1.6387,2.2495-1.6387,2.2495.1553,3.0508,4.9585,6.2573,4.9585,6.2573s4.6733-3.2192,4.9585-6.2573C218.28508,122.32321,218.642,120.79931,216.64638,120.07371Z" transform="translate(-4.96505 -7.99171)"/><polygon class="cls-12" points="261.788 102.996 248.836 102.996 248.836 102.003 260.795 102.003 260.795 53 248.836 53 248.836 52.007 261.788 52.007 261.788 102.996"/><path class="cls-15" d="M20.36368,130.88861a4.50668,4.50668,0,0,0-4.9898,2.0791c-1.6377,2.9624,4.8594,12.1968,2.128,15.9624-2.4131,3.3262-4.6231,1.6475-4.6231,1.6475s4.6123,5.0108,8.5669-.8984c2.3726-3.5459,1.3472-7.4073,1.2241-10.6035C22.54678,135.87841,20.36368,130.88861,20.36368,130.88861Z" transform="translate(-4.96505 -7.99171)"/><path class="cls-16" d="M46.35388,278.50731s.899,2.3936,2.149,2.9619,4.0825,3.1953,5.2187,3.3848c1.1367.1894,3.8647.4033,4.0166,1.8437.1514,1.4395-.1426,2.7461-5.6362,1.9883a40.491,40.491,0,0,1-10.6841-3.2959s-1.1089-5.5664.6767-8.3144C43.88078,274.32661,46.35388,278.50731,46.35388,278.50731Z" transform="translate(-4.96505 -7.99171)"/><path class="cls-17" d="M46.35388,278.50731l-1.0278-3.4326h-3.9248v3.6592S47.33978,280.96431,46.35388,278.50731Z" transform="translate(-4.96505 -7.99171)"/><path class="cls-16" d="M11.914,272.04051a10.23326,10.23326,0,0,0,.9961,3.2324c.6089.751,1.4902,4.3233,2.7334,5.4639s4.2915,3.709,3.3584,4.9941c-.9331,1.2842-7.4551-.3662-9.7862-4.3369-2.33-3.9717-3.1274-4.4228-2.831-5.5019.2969-1.0782,2.5078-5.2276,2.4551-5.7315C8.787,269.65571,11.914,272.04051,11.914,272.04051Z" transform="translate(-4.96505 -7.99171)"/><path class="cls-17" d="M12.86608,270.25631a6.51351,6.51351,0,0,0-.9521,1.7842c-.1651.6582-1.6074.918-2.7642-.5107a2.29707,2.29707,0,0,1-.31-1.3692,12.40345,12.40345,0,0,1,1.0249-2.8672Z" transform="translate(-4.96505 -7.99171)"/><path class="cls-18" d="M39.31678,184.44971c.0523.0654.1275.1582.2241.2763v.001c.2476.3018.6309.7666,1.1153,1.3447,2.7968,3.3418,8.9424,10.4698,11.2822,11.7569,1.6582.9111,1.9121-1.9531.2627-3.7149-1.5044-1.6064-7.312-11.9668-9.5606-14.1962-1.0922-1.0831-2.5605-11.3174-2.5605-11.3174s-1.3589,8.5341-1.2075,9.5156C39.02288,179.09811,38.35928,183.25631,39.31678,184.44971Z" transform="translate(-4.96505 -7.99171)"/><path class="cls-17" d="M52.20108,194.11371s.9653,1.2715,1.4663,1.4307c.501.1582,1.0786,1.04,1.498,1.2676.419.2275,1.7945.4463,2.1265.831a13.10977,13.10977,0,0,0,.8887,1.7383c.3115.2901,1.0171.7998.751,1.0606s-1.0279-.0254-1.0279-.0254a.53105.53105,0,0,1,.1045.5801c-.3164.582-.7339.5742-.7339.5742s.0806.4629-.1128.6728a1.16271,1.16271,0,0,1-.8295.4444,1.07045,1.07045,0,0,1-.4288.5927.97641.97641,0,0,1-.9379.0733s-.4761.5205-.8443.3808a3.3032,3.3032,0,0,1-.8105-.6201,12.17238,12.17238,0,0,1-2.3789-4.5215,8.99051,8.99051,0,0,0-1.6451-3.4423Z" transform="translate(-4.96505 -7.99171)"/><path class="cls-19" d="M51.56238,208.88621c-.0659-.1436-1.6089-3.5352-.4756-6.168a4.49079,4.49079,0,0,1,2.8643-2.4824,6.12633,6.12633,0,0,1,5.1982.3135,8.46346,8.46346,0,0,1,3.208,3.8584,12.70942,12.70942,0,0,1,.8438,2.4824l.0586.291-11.606,1.9024Zm7.3008-7.8408a5.57808,5.57808,0,0,0-4.73-.2676,3.942,3.942,0,0,0-2.5205,2.165c-.8862,2.0557.082,4.7579.3848,5.5049l10.5737-1.7334C62.31438,205.72411,61.30308,202.45261,58.86318,201.04541Z" transform="translate(-4.96505 -7.99171)"/><polygon class="cls-5" points="77.262 231.599 40.096 236.435 33.795 202.397 72.653 195.75 77.262 231.599"/><polygon class="cls-20" points="86.012 229.107 72.653 195.75 77.262 231.599 81.154 229.319 86.012 229.107"/><path class="cls-19" d="M49.85638,208.53171c-.044-.1601-1.066-3.9619.5703-6.5107a4.74316,4.74316,0,0,1,3.415-2.0928,6.46884,6.46884,0,0,1,5.3643,1.2266,8.93905,8.93905,0,0,1,2.6772,4.5761,13.37631,13.37631,0,0,1,.4497,2.7334l.0113.3135-12.4268-.0244Zm8.9658-6.9101a5.89106,5.89106,0,0,0-4.8843-1.0967,4.1635,4.1635,0,0,0-3.0015,1.8213c-1.2793,1.9892-.7373,4.9736-.5507,5.8037l11.3213.0224C61.61028,207.09521,61.122,203.51121,58.82218,201.62161Z" transform="translate(-4.96505 -7.99171)"/><polygon class="cls-21" points="71.547 237.849 31.969 236.462 31.286 199.894 72.94 199.684 71.547 237.849"/><polygon class="cls-8" points="81.097 236.764 72.94 199.684 71.547 237.849 75.997 236.145 81.097 236.764"/><path class="cls-22" d="M57.82658,200.16161s-1.4502-1.9307-2.2783-1.9658c-.8282-.0342-.3443.6914-.3443.6914s-.4663-.7256-1.0947-.4151c-.6279.3116-.0156,1.1309-.0156,1.1309a.69784.69784,0,0,0-1.003.0752c-.4995.5303.1661,1.0937.1661,1.0937s-1.0743-.248-.9395.6407a3.61682,3.61682,0,0,0,1.8037,2.3222s.3994.1612.8443-.3808a.96728.96728,0,0,0,1.3667-.666s1.2148-.1573.9423-1.1172A.84176.84176,0,0,0,57.82658,200.16161Z" transform="translate(-4.96505 -7.99171)"/><path class="cls-23" d="M29.10878,213.83251c.2051.9902,1.5166,5.1318,2.9849,9.7353v.001c1.3393,4.1963,2.8091,8.7744,3.6904,11.6963.3291,1.0899.5762,1.9492.7041,2.4717.8452,3.459-.106,8.8857-.4131,13.4199-.3076,4.5352,4.582,26.8467,4.582,26.8467,1.1529.5381,6.2681-.8858,6.2681-.8858-.8457-1.6142-1.9824-29.3876-1.521-31.1562a26.83967,26.83967,0,0,0,.3071-8.6084,7.48306,7.48306,0,0,1-.1508-1.543c-.0391-2.4248.4604-6.4345.7656-10.832.3843-5.5352-1.7676-19.293-2.0747-20.5234-.0283-.1133-.0733-.2715-.1304-.4678-.5664-1.9287-2.3891-7.4072-2.3891-7.4072-3.6978-1.0996-6.482-1.2989-8.5601-.875a6.36083,6.36083,0,0,0-5.0205,4.3076C26.34318,205.01411,28.84318,212.54831,29.10878,213.83251Z" transform="translate(-4.96505 -7.99171)"/><path class="cls-24" d="M8.09758,269.55421l5.0478,2.1445c.6353-3.0742,14.7334-24.4307,15.6612-26.8135a34.8369,34.8369,0,0,0,1.9165-8.6855c0-.3018.0215-.8106.0644-1.4717.1641-2.5635.6333-7.3975,1.3062-11.1602.1255-.7021.2578-1.3662.3969-1.9716.7447-3.2452.8736-14.3311.8824-20.8516.0039-2.9014-.0157-4.8984-.0157-4.8984s-.0644-.0508-.1855-.1416c-1.4014-1.0606-10.3921-7.5274-13.5269-1.4825a18.13835,18.13835,0,0,0-1.6967,5.0987,58.775,58.775,0,0,0-.17,17.8525c.6944,4.8096,2.9864,11.0244,3.3687,16.0674.2109,2.7744.1343,5.0195-.4927,6.1103-1.7685,3.0752-3.4966,5.6778-7.0718,16.5264C12.41938,259.40571,8.09758,269.55421,8.09758,269.55421Z" transform="translate(-4.96505 -7.99171)"/><path class="cls-17" d="M28.32558,129.563s6.9609.2387,7.2407,10.3203c.2803,10.082-1.9135,12.2295-8.1211,10.1289-6.208-2.1006-8.1679-12.6494-8.3081-14.2822C18.997,134.09621,18.75718,128.34961,28.32558,129.563Z" transform="translate(-4.96505 -7.99171)"/><path class="cls-18" d="M15.73328,163.74851c-.0273,3.4707,3.9629,11.7686,4.5781,14.3311.6148,2.5625,1.5884,3.3828.7686,6.6621s-3.3618,14.374-3.2593,15.3476,22.8667,4.5635,26.3003,3.8975c0,0-4.1968-15.6611-4.5039-17.4541-.3076-1.794.3731-8.5176.5269-10.4141.1538-1.8955,2.0732-5.9765,2.0083-7.8769-.0655-1.9366-1.0166-3.6084-2.3467-5.6758-.4121-.6416-.8452-1.294-1.2783-1.9287a36.51679,36.51679,0,0,0-3.5088-4.5928,11.1261,11.1261,0,0,0-1.4121-1.1279l-.0039-.002a6.56673,6.56673,0,0,0-1.4537-.7666l-6.0981-.9736s-3.8008,1.375-5.9868,1.8867C20.06388,155.061,15.79678,155.68311,15.73328,163.74851Z" transform="translate(-4.96505 -7.99171)"/><path class="cls-18" d="M33.60248,154.91451l3.5341,5.5703,3.2622,5.1416c-.0078-.0283-.2251-.8066-.5932-3.0605-.0703-.4277-.1455-.9092-.2261-1.4483a3.798,3.798,0,0,0-.1025-.4736v-.001c-1.396-3.2187-5.7129-5.6455-5.8706-5.7265Z" transform="translate(-4.96505 -7.99171)"/><path class="cls-17" d="M23.454,145.47121c.6153,1.1611,1.2647,8.3691,1.2647,8.3691s8.6767,3.2803,7.789,1.4248a7.08817,7.08817,0,0,1-.5293-2.876,13.94635,13.94635,0,0,1,.0962-1.7509c.0225-.1895.0401-.2989.0401-.2989S22.83928,144.30911,23.454,145.47121Z" transform="translate(-4.96505 -7.99171)"/><path class="cls-25" d="M27.12688,149.895c1.332,1.9648,4.8506,2.4941,4.8506,2.4941h.0009a13.94635,13.94635,0,0,1,.0962-1.7509A9.909,9.909,0,0,1,27.12688,149.895Z" transform="translate(-4.96505 -7.99171)"/><path class="cls-18" d="M39.46178,160.605h.0005a7.28751,7.28751,0,0,1,.3433,1.9609l-1.2783-1.9287s-2.2823-3.2735-3.0645-4.124a13.02466,13.02466,0,0,0-1.8564-1.5967S38.09708,157.07471,39.46178,160.605Z" transform="translate(-4.96505 -7.99171)"/><path class="cls-17" d="M32.14878,154.14791s4.0889,6.2871,2.7046,6.8369c-1.3838.5489-8.8759-.7334-12.0615-6.705C22.79188,154.27981,27.55458,151.83741,32.14878,154.14791Z" transform="translate(-4.96505 -7.99171)"/><path class="cls-26" d="M53.15028,195.18411s-2.0884.6914-2.7295,1.8808a19.509,19.509,0,0,0-1.7646-2.0517l3.1611-1.3692Z" transform="translate(-4.96505 -7.99171)"/><path class="cls-16" d="M40.13618,176.22211c.0092-.0849.0146-.1347.0146-.1425a.25535.25535,0,0,0-.0068.039A.927.927,0,0,0,40.13618,176.22211Z" transform="translate(-4.96505 -7.99171)"/><path class="cls-18" d="M39.54088,184.726v.001c.2476.3018,1.1709,1.417,1.6548,1.9951,0,0-1.105-9.2949-1.0595-10.499A68.22181,68.22181,0,0,0,39.54088,184.726Z" transform="translate(-4.96505 -7.99171)"/><polygon class="cls-5" points="27.059 189.306 2.133 181.777 7.84 158.416 34.354 165.277 27.059 189.306"/><polygon class="cls-27" points="33.313 190.22 34.354 165.277 27.059 189.306 30.175 188.97 33.313 190.22"/><path class="cls-18" d="M16.32508,160.54931s.9629-6.4971,5.7236-5.4268c4.5748,1.0293.2876,9.5479-.0478,10.5557-.3359,1.0088-3.7246,9.2461-4.0181,10.3262-.9292,3.4131-.0586,3.4931,1.3394,4.2988,4.126,2.376,12.415,2.7939,13.3935,3.4473.9781.6533,1.1143,2.1113-.5293,2.1826-2.1386.0918-14.3593-1.0586-16.0639-1.2256-1.6529-.1621-4.9444-.3008-4.0806-6.1758C12.62388,174.57471,16.32508,160.54931,16.32508,160.54931Z" transform="translate(-4.96505 -7.99171)"/><path class="cls-17" d="M25.40418,182.269s2.5479.4268,2.7857.3877c.2378-.0381,1.2441-1.6875,2.4111-1.9834a24.1117,24.1117,0,0,0,2.9849-.748c.3593-.2246.458.9199-.6626,1.3877-1.1206.4668-1.4014,1.0927.6967,1.5136,1.1612.2334,5.5005-.2509,5.1402.4815-.2115.4306-4.3936.7383-4.3936.7383s4.5122-.0205,4.6655.2519c.3028.5381-4.2236.7276-4.4121.71,0,0,3.878.2226,3.9121.5703.042.4326-3.8862.249-3.85.3193,0,0,3.0825.2129,3.0517.4756-.0405.3447-2.7534.3867-3.2788.3242-.5259-.0615-5.8413-.666-6.7319-.8437-.8975-.1787-2.397-.2823-2.397-.2823Z" transform="translate(-4.96505 -7.99171)"/><path class="cls-17" d="M20.56928,180.91551a47.78637,47.78637,0,0,0,4.8349,1.3535c2.3428.4961-.0781,3.3027-.0781,3.3027s-4.0566-.3857-6.0088-.5654C18.60148,184.94091,20.56928,180.91551,20.56928,180.91551Z" transform="translate(-4.96505 -7.99171)"/><path class="cls-18" d="M22.476,165.13821a49.634,49.634,0,0,0-6.8306-1.9776s.836-9.0889,6.2149-8.1572C27.23918,155.936,22.476,165.13821,22.476,165.13821Z" transform="translate(-4.96505 -7.99171)"/><path class="cls-19" d="M22.22648,168.84621l7.8984,2.0439-.0527.1807a8.742,8.742,0,0,1-.7256,1.6709,5.88176,5.88176,0,0,1-2.4429,2.4873,4.25857,4.25857,0,0,1-3.6172-.0801,3.1196,3.1196,0,0,1-1.8408-1.8838c-.6338-1.8877.6289-4.1475.6831-4.2432Zm7.3999,2.3105-7.2217-1.8057a5.54387,5.54387,0,0,0-.582,3.7891,2.73976,2.73976,0,0,0,1.6211,1.6436,3.87537,3.87537,0,0,0,3.2905.0859C28.50428,174.03461,29.39148,171.82761,29.62638,171.15671Z" transform="translate(-4.96505 -7.99171)"/><path class="cls-18" d="M32.01258,153.17431s-.7016.9365-7.4746-1.1426l-.1162,1.6318a17.93687,17.93687,0,0,0-3.3398,1.1329s12.2128,11.5087,14.0576,6.8115-2.8457-7.4053-2.8457-7.4053Z" transform="translate(-4.96505 -7.99171)"/><path class="cls-15" d="M30.20108,135.93011s-1.3399,4.9434-9.3242,6.4219c0,0-6.2554-10.7099,2.5478-12.9448,8.8037-2.2349,11.6319,4.54,11.8946,7.8706A9.6581,9.6581,0,0,0,30.20108,135.93011Z" transform="translate(-4.96505 -7.99171)"/><path class="cls-15" d="M35.00478,135.97311s-3.5171-12.6865-14.3652-5.6181c0,0-5.4473,3.6132.4424,12.498C21.082,142.853,29.29138,140.69871,35.00478,135.97311Z" transform="translate(-4.96505 -7.99171)"/><path class="cls-19" d="M26.42568,182.43411a4.07274,4.07274,0,0,0-.4853,3.1884s.1953.2686.8964.0948c0,0-.0361-2.2852.6504-3.126A1.65474,1.65474,0,0,0,26.42568,182.43411Z" transform="translate(-4.96505 -7.99171)"/><path class="cls-17" d="M26.17958,141.36081c-.4712-1.0371-1.2412-1.9473-2.3848-1.2461-1.1435.7022-.3896,3.2227,1.0655,3.6123C26.31578,144.11761,26.59508,142.27491,26.17958,141.36081Z" transform="translate(-4.96505 -7.99171)"/><path class="cls-15" d="M23.38318,142.13331a5.06525,5.06525,0,0,0-.9531,3.3896s-1.8037-1.8818-1.6719-3.1709S23.38318,142.13331,23.38318,142.13331Z" transform="translate(-4.96505 -7.99171)"/><rect class="cls-28" x="305.12663" y="232.7793" width="59.7422" height="7.2529"/><rect class="cls-29" x="312.26948" y="233.51801" width="59.7431" height="7.253" transform="translate(679.31701 466.29731) rotate(-180)"/><rect class="cls-30" x="306.08763" y="218.2734" width="59.7421" height="7.2529"/><rect class="cls-31" x="312.26948" y="219.01221" width="59.7431" height="7.2529" transform="translate(679.31701 437.28561) rotate(-180)"/><rect class="cls-32" x="308.32583" y="203.7666" width="59.7432" height="7.2539"/><rect class="cls-33" x="311.41978" y="204.50531" width="59.7422" height="7.253" transform="translate(677.61671 408.27191) rotate(-180)"/><rect class="cls-34" x="305.12663" y="189.2607" width="59.7422" height="7.2529"/><rect class="cls-35" x="312.53018" y="189.99951" width="59.7432" height="7.2529" transform="translate(679.83851 379.26021) rotate(-180)"/><rect class="cls-36" x="314.82218" y="247.72311" width="59.7432" height="7.2539" transform="translate(684.42251 494.70841) rotate(-180)"/><rect class="cls-37" x="317.99869" y="183.05263" width="59.74314" height="7.25307" transform="translate(-0.40128 -16.25737) rotate(1.37031)"/><path class="cls-38" d="M364.58678,161.69671s-1.3593-1.6435-.8339-2.7021a5.294,5.294,0,0,0,.1367-2.6572c-.0284-.6123.665-2.0264-.1065-1.9971-.7724.0283-1.2431,2.6055-1.4531,3.2344-.21.6279-1.7666-1.8936-2.4141-2.1309s-4.6787,2.5781-3.4101,4.1846c1.2685,1.6074,3.4199,2.5801,3.5869,2.9072s.8516,1.2822.8516,1.2822Z" transform="translate(-4.96505 -7.99171)"/><path class="cls-39" d="M359.33388,279.39991s-3.3594,3.373-6.2471,3.7363-6.2392,1.4482-6.6328,3.625c-.3926,2.1768,8.5557,4.4893,12.0811,2.7871,5.2597-2.541,6.7871-1.5312,7.5879-3.0889s.6523-6.9345.7754-7.4502C367.04968,278.37161,359.33388,279.39991,359.33388,279.39991Z" transform="translate(-4.96505 -7.99171)"/><path class="cls-39" d="M418.66788,269.85791s-.9736,4.6152-3.1133,6.3847c-2.1416,1.7706-4.2832,4.3995-3.4805,6.4834.8018,2.084,8.4336,1.8379,11.1651-3.6738,1.7246-3.4814,3.7285-4.0849,3.5732-5.8388-.1543-1.753-2.8222-5.5069-2.9883-6.0157C423.61908,266.56881,418.66788,269.85791,418.66788,269.85791Z" transform="translate(-4.96505 -7.99171)"/><path class="cls-40" d="M382.03018,203.79641s-11.5742,23.9746-14.1885,30.0546a87.13735,87.13735,0,0,0-5.2461,19.7081c-.4189,4.9765-5.1845,25.2168-5.4785,26.6718-.293,1.4551,10.0899.5811,10.0899.5811s9.0459-34.4815,11.4414-39.3711c1.5986-3.2637,13.6123-24.9834,14.6738-23.6358,1.0605,1.3477,7.5185,17.5762,8.3047,21.4688s15.5781,32.8418,15.5781,32.8418,6.9062-.5049,8.2656-3.1357c0,0-11.0332-29.3389-12.2588-34.6788-.624-2.7168-2.9091-19.8359-5.79-32.9599C405.93938,194.59231,382.03018,203.79641,382.03018,203.79641Z" transform="translate(-4.96505 -7.99171)"/><path class="cls-41" d="M328.67278,136.854a30.68776,30.68776,0,1,1,35.5293,24.9228A30.68794,30.68794,0,0,1,328.67278,136.854Z" transform="translate(-4.96505 -7.99171)"/><path class="cls-42" d="M365.995,161.40671l-10.5888-60.3442a30.68765,30.68765,0,0,1,10.5888,60.3442Z" transform="translate(-4.96505 -7.99171)"/><path class="cls-43" d="M328.67368,136.854a30.69825,30.69825,0,0,1,17.7051-33.3286l10.2891,58.6391A30.7001,30.7001,0,0,1,328.67368,136.854Z" transform="translate(-4.96505 -7.99171)"/><path class="cls-44" d="M370.80458,159.84131a30.69537,30.69537,0,0,0-10.3428-58.9444Z" transform="translate(-4.96505 -7.99171)"/><path class="cls-45" d="M356.66788,162.16451l-10.2891-58.6391a30.75254,30.75254,0,0,1,7.2168-2.2002q.90825-.159,1.8106-.2627l10.5888,60.3442q-.8862.2109-1.792.3701A30.76255,30.76255,0,0,1,356.66788,162.16451Z" transform="translate(-4.96505 -7.99171)"/><path class="cls-8" d="M335.58288,130.94381a23.32386,23.32386,0,1,1,22.708,23.9229A23.3233,23.3233,0,0,1,335.58288,130.94381Z" transform="translate(-4.96505 -7.99171)"/><path class="cls-5" d="M367.52528,128.48581a4.72353,4.72353,0,0,0-.6543-.9614,10.35383,10.35383,0,0,0-1.1045-1.1152,11.34747,11.34747,0,0,0-1.4707-1.0826,9.92133,9.92133,0,0,0-1.75-.8642l-2.0312,6.7524.58.3169a30.06582,30.06582,0,0,1,2.8956,1.9028,9.46047,9.46047,0,0,1,2.0156,1.9937,5.42157,5.42157,0,0,1,.9629,2.2988,6.26449,6.26449,0,0,1-.2617,2.8213,6.773,6.773,0,0,1-1.5079,2.7656,6.02228,6.02228,0,0,1-2.3261,1.5235,8.047,8.047,0,0,1-2.9121.458,12.9561,12.9561,0,0,1-3.2481-.4971l-1.0303,3.4248-1.6963-.5097,1.0499-3.4913a17.14851,17.14851,0,0,1-4.1895-2.2734,14.68824,14.68824,0,0,1-3.2393-3.3047l2.6055-2.6308a6.06673,6.06673,0,0,0,.7891,1.1621,12.42788,12.42788,0,0,0,1.334,1.3613,15.3325,15.3325,0,0,0,1.7793,1.3535,13.32237,13.32237,0,0,0,2.1298,1.1387l2.0323-6.752q-.1758-.12375-.3741-.2368-.1977-.1128-.373-.2368a28.754,28.754,0,0,1-2.7275-1.8701,7.89035,7.89035,0,0,1-1.7696-1.8662,5.02178,5.02178,0,0,1-.7832-2.0674,5.85018,5.85018,0,0,1,.2617-2.4649,7.178,7.178,0,0,1,1.4082-2.6713,6.49621,6.49621,0,0,1,2.209-1.6656,7.7886,7.7886,0,0,1,2.7871-.6914,11.499,11.499,0,0,1,3.1758.2622l.9912-3.2949,1.6963.5103-.9912,3.2949a13.10313,13.10313,0,0,1,3.6592,2.0259,14.77546,14.77546,0,0,1,2.6445,2.6806Zm-11.0205-2.3901a2.4617,2.4617,0,0,0,.3438,2.3442,9.6962,9.6962,0,0,0,2.5566,2.0855l1.9336-6.4263a4.93877,4.93877,0,0,0-3.2158.0464A2.95282,2.95282,0,0,0,356.50478,126.09571Zm6.1689,13.6665a2.52343,2.52343,0,0,0-.4882-2.5137,12.83049,12.83049,0,0,0-2.7998-2.2822l-1.9424,6.459a6.21845,6.21845,0,0,0,3.4482.1836A2.56966,2.56966,0,0,0,362.67368,139.76221Z" transform="translate(-4.96505 -7.99171)"/><path class="cls-12" d="M411.35438,167.28461s-3.9795,11.9756-3.8906,14.8262S405.25678,168.17431,411.35438,167.28461Z" transform="translate(-4.96505 -7.99171)"/><path class="cls-46" d="M383.09458,171.71041a29.03527,29.03527,0,0,1-1.4296,3.6446v.0009a23.818,23.818,0,0,1-1.2012,2.25c-.0801.1319-.1621.2637-.2451.3936a15.35979,15.35979,0,0,1-1.0518,1.4521,6.41683,6.41683,0,0,1-4.2764,2.6573c-3.4003.25-15.6201-18.4288-15.6201-18.4288l5.8369-2.6513s7.7334,11.1631,8.9336,10.5498c1.2022-.6133,2.4444-5.1465,2.4444-5.1465,1.4199-.7842,3.5879,1.3857,5.0508,3.1768q.142.1743.2753.3447C382.58,170.92621,383.09458,171.71041,383.09458,171.71041Z" transform="translate(-4.96505 -7.99171)"/><path class="cls-46" d="M408.13078,203.26021c-6.6153,5.9229-27.749,3.961-27.749,3.961.3056-.7305,2.4462-22.7647,1.6972-27.7442-.749-4.9775-.3252-9.207-.9883-9.3994s-5.208-1.7793-5.208-1.7793,2.418-7.6836,3.4297-9.3496,8.25-4.1025,8.25-4.1025a28.72,28.72,0,0,1,11.584-1.3096c9.96,1.1777,11.1563,4.1094,11.1563,4.1094-2.7481,17.5771-2.2647,13.7832-2.4024,17.2617-.168,4.7549-.5234,14.9394-.5732,17.3662A103.6062,103.6062,0,0,0,408.13078,203.26021Z" transform="translate(-4.96505 -7.99171)"/><path class="cls-38" d="M400.79,153.80511a14.89581,14.89581,0,0,1-1.2832,1.9747c-3.1104,4.0087-6.7168,3.8662-6.7168,3.8662a4.77249,4.77249,0,0,1-3.9932-2.9034,7.30234,7.30234,0,0,1-.6436-2.1103l1.3125-.4727a5.77858,5.77858,0,0,0,.1924-1.331c.0196-.2822.0254-.5801.0293-.8838,0-.2637-.0039-.5293-.0097-.79l-.0088-.3106c-.042-1.1152-.128-2.0439-.128-2.0439s9.4366-5.0996,8.6661-1.502a8.70463,8.70463,0,0,0-.0606,3.8858,2.97388,2.97388,0,0,0,1.2207,1.9834C400.26358,153.59911,400.79,153.80511,400.79,153.80511Z" transform="translate(-4.96505 -7.99171)"/><path class="cls-17" d="M373.68548,161.07371a1.88352,1.88352,0,0,1-.5782-1.0215c-.1035-.9609.8584-2.1972-.2451-3.0713s-5.0595,1.792-5.4638,2.6182c-.4034.8262.6796,2.4394,3.2246,3.9834C373.16688,165.12741,373.68548,161.07371,373.68548,161.07371Z" transform="translate(-4.96505 -7.99171)"/><path class="cls-17" d="M373.18738,157.32861a38.4088,38.4088,0,0,0-2.2099-3.7832c-1.1329-1.6944-2.7256-3.4922-3.1866-3.1826-.6298.4228.8057,1.6894,1.8086,3.4453.9229,1.6172.4522,1.4551.4522,1.4551s.1367.039-1.2344-1.5245c-1.4736-1.6806-3.2773-3.4638-3.6934-3.0908-.2607.2334-.3154.2373.1123.9346-.3378-.3477-.4882-.3047-.6582-.1777-.8769.6533.875,3.4599,1.5723,4.5742-.541-.8526-1.0351-1.4199-1.3125-.6924-.3164.832,2.3526,4.6865,3.166,6.1601C368.89248,163.05321,373.18738,157.32861,373.18738,157.32861Z" transform="translate(-4.96505 -7.99171)"/><path class="cls-46" d="M411.13268,169.01221c4.2754-5.2051-1.1621-11.8076-1.1621-11.8076-3.1289-2.6661-9.8271,8.6718-10.6894,9.7656-.8633,1.0947-7.4112,6.9463-9.2383,8.9219-.9326,1.0088-4.8525-3.292-6.6494-5.0049-1.0791-1.0293-9.4951-10.9014-9.4951-10.9014s-5.794,4.1856-5.3067,3.832c.4863-.3535,17.1533,21.4707,20.2461,21.6358C388.83778,185.45361,400.80848,181.58251,411.13268,169.01221Z" transform="translate(-4.96505 -7.99171)"/><path class="cls-47" d="M380.46378,177.60591c-.0801.1319-.1621.2637-.2451.3936a15.35979,15.35979,0,0,1-1.0518,1.4521c-.8037-.9599-3.8437-7.8242-3.8906-7.9326Z" transform="translate(-4.96505 -7.99171)"/><path class="cls-47" d="M406.43638,174.08441a83.14618,83.14618,0,0,1-8.2695,6.5821c-2.9101,1.7773-7.7656,4.1982-8.3076,4.4072C389.85928,185.07371,402.71958,182.56491,406.43638,174.08441Z" transform="translate(-4.96505 -7.99171)"/><path class="cls-17" d="M384.537,135.62941s-2.0488,3.7978-1.0332,4.3886c.8399.4883-.9824,4.2159-1.2207,4.8243-.2383.6093,1.5196,1.0517,1.8926,1.4443.373.3916,1.4805,5.2148,2.9287,5.3603s7.9727-2.124,9.749-3.9707c1.7764-1.8476,3.2344-10.1914,2.0489-13.7104C397.71568,130.44631,388.15318,128.99411,384.537,135.62941Z" transform="translate(-4.96505 -7.99171)"/><path class="cls-48" d="M384.12878,136.45261a5.83573,5.83573,0,0,1,1.7071-7.1455c3.7988-3.043,10.8037,2.2979,11.5927,2.5015s5.2686.5112,3.0069,8.3764c-1.9424,6.753-2.2129,7.0371-2.2129,7.0371s-1.4502-3.9121-2.2715-4.5087c-1.2822-.9307-4.0947-.7071-4.0947-.7071s1.3398-3.5576-.7539-4.0615C389.00768,137.44091,386.247,135.66551,384.12878,136.45261Z" transform="translate(-4.96505 -7.99171)"/><path class="cls-17" d="M394.08778,139.96921c.1836-.4883.7813-2.5859,2.5811-1.3545,1.7998,1.2324-1.1211,5.1846-1.4346,5.2363C394.91978,143.90181,392.53308,144.07571,394.08778,139.96921Z" transform="translate(-4.96505 -7.99171)"/><path class="cls-25" d="M396.663,147.85891s-1.5342,3.0273-7.0049,4.9697c.0196-.2822.0254-.5801.0293-.8838,0-.2637-.0039-.5293-.0097-.79A23.55266,23.55266,0,0,0,396.663,147.85891Z" transform="translate(-4.96505 -7.99171)"/><path class="cls-49" d="M111.07408,279.78271s-2.3418,6.0264-3.623,7.0791-4.21,2.9287-3.4775,3.8437c.7319.9161,5.9028,1.0528,7.1386.5039,1.2354-.5488,1.4346-2.5478,3.0821-3.1884s.3984-4.045.2285-5.2696c-.2217-1.5957-.647-1.8213-.647-2.6445C113.77578,279.28271,111.07408,279.78271,111.07408,279.78271Z" transform="translate(-4.96505 -7.99171)"/><path class="cls-49" d="M133.48818,278.22021s.5884,2.4199.8633,3.0605a43.51591,43.51591,0,0,0,2.5625,4.3477c.3657.4111,5.6284,2.6992,4.9419,3.4316s-1.5562,1.6016-5.1709.7784c-3.6153-.8243-4.7207-3.6172-7.5562-3.8917-2.8349-.2753-1.9863-3.3828-.8877-4.7558a24.18378,24.18378,0,0,0,2.2476-3.7949Z" transform="translate(-4.96505 -7.99171)"/><path class="cls-50" d="M147.18638,242.77c-.4809,3.2266-10.1196,20.9902-13.2441,36.4228a2.79758,2.79758,0,0,1-.0908.3418,18.70358,18.70358,0,0,1-4.4229-1.1074c.0743-2.2754,2.1856-20.543,3.2769-23.9472,1.1445-3.5694,4.6011-11.1211,4.4648-13.5459-.1377-2.4258-1.6967-4.044-2.7495-5.2334-.6054-.6846-4.3833-6.1934-7.4819-10.9122l-.001-.0009c-1.7778-2.709-3.3325-5.1582-3.9341-6.2842a2.16133,2.16133,0,0,1-.2646-.6162c0-.8692-13.6587-24.5,10.6513-20.625,0,0,.6187,3.9814.7549,4.7363.0889.4883,2.1299,5.3125,3.8765,9.9043.9536,2.5068,1.8188,4.9453,2.2319,6.5703.4893,1.9229,1.3365,4.8438,2.2046,7.6856v.0029c1.2056,3.9512,2.4468,7.751,2.8067,8.5088C145.88268,235.97511,147.66738,239.54341,147.18638,242.77Z" transform="translate(-4.96505 -7.99171)"/><path class="cls-51" d="M123.30118,217.23681s-1.8657,8.041-2.8955,11.2666c-1.0298,3.2266-3.1089,10.2734-3.2036,12.1269s-.0913,5.9034-.2285,7.5508c-.1377,1.6475.0366,8.2627-.4014,11.626-.437,3.3633-2.1709,19.6514-2.3076,20.6816-.003.0225-.0078.0459-.0137.0713a15.276,15.276,0,0,1-3.9824.127c-.0044-.0176-.0083-.0352-.0122-.0537-.9615-4.4864-1.9868-21.1153-2.0552-23.793-.0689-2.6768.686-8.7852.4111-10.6387-.2744-1.8525-2.8144-20.8652-1.9902-28.5527.8232-7.6875,3.4565-20.3828,3.4565-20.3828S137.372,187.44771,123.30118,217.23681Z" transform="translate(-4.96505 -7.99171)"/><path class="cls-17" d="M135.54678,204.50831c-.0689-.6866-.7832-5.4883-1.4014-8.584-.6176-3.0967-1.1328-5.9277-1.476-7.1641-.0225-.081-.0582-.2226-.105-.4121-.2256-.914-.7071-2.9521-1.2256-4.8623-.0366-.1338-.0733-.2676-.1099-.3994v-.709c-.3672-1.3252.2022-2.0078.3164-3.0205a3.07834,3.07834,0,0,0-.0586-1.0283c-.0024-.0147-.0058-.0283-.0092-.043a22.8751,22.8751,0,0,1-.6949-4.1533c0-2.8145-1.3027-16.377-1.3027-16.377s4.3325,2.0303,4.9507,5.0498a96.59107,96.59107,0,0,1,.8623,11.0606c.0688,1.3721,2.2168,11.6689,2.4224,14.0029a30.0163,30.0163,0,0,0,.9946,5.9033c.4805,1.5782.0674,9.6016.2046,10.8379C139.05168,205.84521,135.61518,205.19481,135.54678,204.50831Z" transform="translate(-4.96505 -7.99171)"/><path class="cls-52" d="M132.56438,188.34811c-.2256-.914-.7071-2.9521-1.2256-4.8623-.0112-1.5566.1787-3.0508.2065-4.1289a4.69734,4.69734,0,0,0-.0586-1.0283c-.0024-.0147-.0058-.0283-.0092-.043a29.82448,29.82448,0,0,1-.2266-3.9619c.1826-.2139,1.3115-.1074,1.3115-.1074S134.90028,183.35981,132.56438,188.34811Z" transform="translate(-4.96505 -7.99171)"/><path class="cls-40" d="M126.69378,145.57961s3.3891-9.9395-3.0786-13.0205c-6.4673-3.0811-11.9585,1.373-12.9956,3.7832-1.0376,2.4101-.7627,6.7919.122,9.8486.8843,3.0557.7559,7.708-1.166,9.2637-1.9224,1.5556-3.6201,4.9433-5.1802,7.8105-1.5595,2.8672,13.834-6.7578,13.834-6.7578Z" transform="translate(-4.96505 -7.99171)"/><path class="cls-17" d="M120.92808,134.25441s6.7266,1.9902,5.7657,11.3252c-.961,9.3339-5.3535,8.8535-5.7657,8.9228-.4116.0684-5.6284.4111-7.2753-10.914C112.00528,132.26361,120.92808,134.25441,120.92808,134.25441Z" transform="translate(-4.96505 -7.99171)"/><path class="cls-46" d="M124.11078,156.04541s6.5346,1.6826,7.1518,2.7812c.6182,1.0977.6865,5.9024,1.0986,7.4815.4117,1.5781,1.3047,4.9355.6866,6.3076-.6172,1.373-1.3042,2.6836-1.0987,3.6445a14.54629,14.54629,0,0,1,.2749,5.6973,25.83084,25.83084,0,0,0-.1372,9.2656c.6172,2.9512,1.2354,5.5596,1.3037,6.0401.0689.4804-23.312.0029-23.312.0029s1.897-6.5918,2.5835-8.1016c.6866-1.5107-.6176-7.3447-1.2353-8.7178-.6177-1.372-3.2945-6.9316-3.2945-7.5498,0,0-2.8315-9.6777-2.5825-10.0214.2486-.3428.0987-1.7686,2.7925-3.4414,2.0664-1.2832,8.1885-2.8096,9.9048-3.084C119.96278,156.07571,124.11078,156.04541,124.11078,156.04541Z" transform="translate(-4.96505 -7.99171)"/><path class="cls-17" d="M124.13418,152.78561a17.70437,17.70437,0,0,0,.3052,5.2471c.5947,1.9219-6.7271,1.8301-7.3218.3662-.5952-1.4648.2876-3.501-.52-6.5781C115.79038,148.74261,124.13418,152.78561,124.13418,152.78561Z" transform="translate(-4.96505 -7.99171)"/><path class="cls-46" d="M130.78408,164.26411a16.65568,16.65568,0,0,1,2.5684,5.0225,7.32311,7.32311,0,0,1-1.4112,6.5859s-6.2275-.3134-8.4238-.2675c-2.1968.0449-9.1265.8046-12.9834,2.9189,0,0-2.9023-5.293-2.8179-6.0322.0845-.7383,1.8701-5.6826,4.6729-6.2227,5.2319-1.0058,8.7026,5.5371,10.3501,5.3545C124.38658,171.43991,125.52138,164.97311,130.78408,164.26411Z" transform="translate(-4.96505 -7.99171)"/><path class="cls-40" d="M119.19228,138.41651s3.6548,5.8144,7.5015,7.1631c0,0,2.1006-9.7559-6.5747-11.8003-8.6758-2.044-7.3169,9.854-6.6695,13.0268A25.785,25.785,0,0,1,119.19228,138.41651Z" transform="translate(-4.96505 -7.99171)"/><path class="cls-25" d="M117.59558,153.17921a4.55033,4.55033,0,0,0,6.0645.29s-.2813,1.7715-2.7285,2.001C118.48328,155.69871,117.59558,153.17921,117.59558,153.17921Z" transform="translate(-4.96505 -7.99171)"/><path class="cls-53" d="M126.94038,224.78951l-.0015-.001-.001-.0009c-1.7778-2.709-3.3325-5.1582-3.9341-6.2842v-.002s2.3965-6.0634,2.6494-8.4297C125.90758,207.70361,126.94038,224.78951,126.94038,224.78951Z" transform="translate(-4.96505 -7.99171)"/><path class="cls-17" d="M115.933,156.84711s3.024,5.2227,6.3726,6.0596c3.3481.8379,3.2519-4.2568,2.2729-6.7373,0,0-.1049-.2666-3.3891-.3144A11.07083,11.07083,0,0,0,115.933,156.84711Z" transform="translate(-4.96505 -7.99171)"/><polygon class="cls-49" points="105.467 191.292 105.32 191.274 105.389 190.708 105.536 190.726 105.467 191.292"/><path class="cls-54" d="M110.57658,279.09811q-.06015-.564-.1192-1.1377l.1519-.0156q.05865.5727.1186,1.1377Zm-.2354-2.2764c-.0381-.3769-.0757-.7568-.1128-1.1376l.1514-.0157q.05565.57285.1128,1.1387Zm-.2221-2.2773q-.0543-.56685-.1055-1.1396l.1518-.0137q.0513.5727.105,1.1387Zm-.2061-2.2793c-.0322-.3779-.064-.7588-.0947-1.1406l.1513-.0127c.0313.3828.0625.7617.0953,1.1406Zm-.1846-2.2812q-.04245-.56835-.083-1.1416l.1514-.0108q.04095.57285.0835,1.1406Zm-.1601-2.2832q-.0366-.56985-.0703-1.1436l.1518-.0088q.03375.5727.0703,1.1426Zm-.1333-2.2872q-.0294-.5712-.0552-1.1445l.1523-.0068q.02565.5742.0552,1.1426Zm-.1026-2.289q-.02115-.57135-.0385-1.1455l.1518-.0039q.01755.5727.0391,1.1435Zm-.0688-2.2901q-.0132-.5712-.0215-1.1455l.1524-.0029q.008.5742.0209,1.1445Zm-.0337-2.291q-.00225-.4248-.0024-.8515v-.295h.1523l-.0005.295q0,.42615.0029.8506Zm.1577-2.29-.1523-.001c.0039-.3828.0102-.7676.0176-1.1455l.1523.0029C109.39738,255.48681,109.39148,255.87161,109.38758,256.25341Zm.0459-2.2861-.1523-.0049c.0112-.3799.0244-.7647.039-1.1446l.1524.0069C109.45788,253.20261,109.44468,253.58741,109.43348,253.96731Zm.0889-2.2852-.1519-.0078c.0186-.3799.0396-.7647.0616-1.1436l.1518.0088C109.56188,250.91751,109.54088,251.30221,109.52238,251.68211Zm.1347-2.2832-.1518-.0107c.0259-.3799.0552-.7647.085-1.1416l.1518.0117C109.71178,248.63521,109.68348,249.019,109.65708,249.39891Zm.1817-2.2793-.1514-.0137q.01755-.1977.0366-.3955.0045-.0468.0044-.123c0-.1377-.0107-.3379-.0332-.6123l.1514-.0117c.023.2783.0342.4824.0342.624,0,.0556-.002.1006-.0054.1377Zm-.2554-2.2832c-.0371-.3428-.0805-.7236-.1284-1.1387l.1514-.0176c.0478.4151.0913.7969.1284,1.1397Zm-.2622-2.2764-.1352-1.1386.1508-.0176.1358,1.1377Zm-.2705-2.2763q-.06585-.5538-.1338-1.1377l.1514-.0176q.06735.583.1333,1.1377Zm-.2651-2.2764q-.06375-.55965-.1285-1.1377l.1514-.0176q.0645.5772.1279,1.1387Zm-.2535-2.2773q-.06-.564-.1201-1.1387l.1514-.0156q.05925.5727.1201,1.1386Zm-.2353-2.2793q-.0564-.5685-.1104-1.1407l.1519-.0136q.0534.5712.1099,1.1396Zm-.2139-2.2823c-.0332-.3808-.0654-.7617-.0957-1.1406l.1514-.0127c.0308.3789.063.7598.0962,1.1397Zm-.1841-2.2832c-.0283-.3896-.0546-.7744-.0781-1.1435l.1519-.0098c.0234.3691.0498.7529.0781,1.1416Zm-.1455-2.2881c-.021-.3906-.039-.7754-.0542-1.1445l.1519-.0068c.0151.3691.0337.7539.0542,1.1435Zm-.0927-2.291c-.0103-.3945-.0166-.7812-.0191-1.1465l.1519-.0009c.0024.3642.0093.75.019,1.1435Zm.1381-2.29-.1523-.0029c.0068-.4014.0195-.7862.0371-1.1456l.1519.0079C107.81778,221.23291,107.80558,221.61671,107.79868,222.01611Zm.1177-2.2783-.1513-.0147c.017-.1767.0361-.3486.0566-.5117l.0786-.627.1509.0186-.0786.627C107.95258,219.39211,107.93348,219.563,107.91638,219.73781Zm.2769-2.2705-.1509-.0186.1416-1.1367.1509.0185Zm.2832-2.2725-.1514-.0195.1411-1.1358.1509.0186Zm.2812-2.2734-.1508-.0186.1406-1.1367.1509.0185Zm.2813-2.2735-.1514-.0185.1402-1.1358.1508.0186Zm.2798-2.2715-.1509-.0185.1396-1.1367.1509.0185Zm.2798-2.2734-.1514-.0186.1396-1.1367.1509.0186Zm.2788-2.2734-.1509-.0186.1387-1.1357.1513.0175Zm.2788-2.2735-.1514-.0176.1392-1.1376.1508.0185Z" transform="translate(-4.96505 -7.99171)"/><rect class="cls-49" x="110.72262" y="280.16489" width="0.14808" height="0.57059" transform="translate(-34.07546 5.33637) rotate(-6.08627)"/><path class="cls-17" d="M135.95008,185.28661s.044-1.0479,1.9409.0303C139.788,186.394,135.95008,185.28661,135.95008,185.28661Z" transform="translate(-4.96505 -7.99171)"/><path class="cls-41" d="M108.78118,195.07271a17.77547,17.77547,0,1,1,20.58,14.4365A17.77642,17.77642,0,0,1,108.78118,195.07271Z" transform="translate(-4.96505 -7.99171)"/><path class="cls-55" d="M130.39928,209.29541l-6.1328-34.9551a17.77616,17.77616,0,0,1,6.1328,34.9551Z" transform="translate(-4.96505 -7.99171)"/><path class="cls-56" d="M108.78118,195.07271a17.78408,17.78408,0,0,1,10.2563-19.3056l5.96,33.9668A17.783,17.783,0,0,1,108.78118,195.07271Z" transform="translate(-4.96505 -7.99171)"/><path class="cls-57" d="M133.18548,208.38821a17.78042,17.78042,0,0,0-5.9908-34.1436Z" transform="translate(-4.96505 -7.99171)"/><path class="cls-58" d="M124.99748,209.73391l-5.96-33.9668a17.84993,17.84993,0,0,1,4.1802-1.2745q.52515-.09225,1.0488-.1523l6.1328,34.9551q-.512.1215-1.0381.2138A17.86475,17.86475,0,0,1,124.99748,209.73391Z" transform="translate(-4.96505 -7.99171)"/><path class="cls-8" d="M112.78408,191.64891a13.50994,13.50994,0,1,1,13.1533,13.8574A13.50946,13.50946,0,0,1,112.78408,191.64891Z" transform="translate(-4.96505 -7.99171)"/><path class="cls-5" d="M131.28608,190.22511a2.79546,2.79546,0,0,0-.3785-.5567,6.09718,6.09718,0,0,0-.6401-.6455,6.51972,6.51972,0,0,0-.8521-.6269,5.66789,5.66789,0,0,0-1.0136-.501l-1.1768,3.9111.3364.1836a17.35473,17.35473,0,0,1,1.6773,1.1026,5.47936,5.47936,0,0,1,1.1675,1.1543,3.13753,3.13753,0,0,1,.5571,1.332,3.606,3.606,0,0,1-.1514,1.6338,3.9143,3.9143,0,0,1-.8735,1.6015,3.47574,3.47574,0,0,1-1.3472.8828,4.648,4.648,0,0,1-1.687.2657,7.51536,7.51536,0,0,1-1.8813-.2881l-.5967,1.9844-.9829-.2959.6084-2.0215a9.98551,9.98551,0,0,1-2.4268-1.3174,8.52751,8.52751,0,0,1-1.876-1.9141l1.5093-1.5244a3.52158,3.52158,0,0,0,.4571.6729,7.15067,7.15067,0,0,0,.7719.789,9.02313,9.02313,0,0,0,1.0318.7842,7.76634,7.76634,0,0,0,1.2334.6592l1.1767-3.9111a2.54652,2.54652,0,0,0-.2163-.1368,2.52748,2.52748,0,0,1-.2163-.1377,16.56685,16.56685,0,0,1-1.5801-1.083,4.55627,4.55627,0,0,1-1.0244-1.081,2.89074,2.89074,0,0,1-.4536-1.1973,3.36952,3.36952,0,0,1,.1514-1.4277,4.15477,4.15477,0,0,1,.8154-1.5469,3.74661,3.74661,0,0,1,1.2798-.9648,4.49553,4.49553,0,0,1,1.6142-.4004,6.63716,6.63716,0,0,1,1.8399.1513l.5737-1.9082.9824.295-.5737,1.9091a7.584,7.584,0,0,1,2.1196,1.1729,8.57542,8.57542,0,0,1,1.5313,1.5527Zm-6.3833-1.3838a1.42439,1.42439,0,0,0,.1992,1.3574,5.604,5.604,0,0,0,1.4809,1.208l1.1197-3.7217a2.85714,2.85714,0,0,0-1.8623.0264A1.70752,1.70752,0,0,0,124.90278,188.84131Zm3.5737,7.916a1.462,1.462,0,0,0-.2837-1.4561,7.42506,7.42506,0,0,0-1.6216-1.3222l-1.1255,3.7412a3.59261,3.59261,0,0,0,1.9976.1064A1.49071,1.49071,0,0,0,128.47648,196.75731Z" transform="translate(-4.96505 -7.99171)"/><path class="cls-17" d="M107.27868,160.10791a18.005,18.005,0,0,0-4.2944,5.3076c-1.853,3.4316-6.1089,9.4717-6.9326,11.4619-.8233,1.9912-3.5694,5.3496-3.9639,7.9336-.3867,2.5274.6416,3.4551,2.2891,4.5537,1.6474,1.0977,13.3374,4.6924,13.3374,4.6924s2.0708-3.3145,1.02-3.5391c-1.9077-.4072-6.459-3.2353-7.2295-3.6904-.8369-.4951-2.9053-2.2568-1.8755-3.081,1.0298-.8233,8.0225-11.0557,9.4634-13.0459,1.4414-1.9903,4.0498-6.8643,3.0889-9.335S108.97988,159.17721,107.27868,160.10791Z" transform="translate(-4.96505 -7.99171)"/><path class="cls-17" d="M106.36608,189.88131a1.90422,1.90422,0,0,0,1.0547.21c.874-.1504,1.7031-1.2022,2.77-.544,1.0664.6573-.2133,4.4063-.8315,4.9219-.6177.5156-2.3306.0508-4.376-1.5781S106.36608,189.88131,106.36608,189.88131Z" transform="translate(-4.96505 -7.99171)"/><path class="cls-17" d="M109.79778,189.37451a39.01646,39.01646,0,0,1,3.9253.8301c1.7968.4834,3.7876,1.3652,3.8315,1.7421.0483.42-1.875-.2294-3.6914-.5966-1.6719-.3379-1.4028-.0069-1.4028-.0069s-.0708-.0976,1.6743.6045c1.8769.7559,3.7192,1.71,3.7168,2.1612-.001.2207-.1236.3056-.853.1367.3969.1826.3999.3105.3344.4746-.3388.8457-3.2817.1416-4.4502-.1377.896.2197,1.5284.4726.9629.8642-.6474.4493-4.7597-.7236-6.2754-1.0107C105.91638,194.12351,109.79778,189.37451,109.79778,189.37451Z" transform="translate(-4.96505 -7.99171)"/><path class="cls-17" d="M140.91588,185.28661s2.7124-.6309,3.585.6748a5.09081,5.09081,0,0,1,.6875,3.7676c-.2178.7783-.9209,2.7802-1.8389,2.3691C140.40468,190.77681,140.91588,185.28661,140.91588,185.28661Z" transform="translate(-4.96505 -7.99171)"/><path class="cls-17" d="M143.60048,185.31491s-.3799-1.833-1.1138-1.5195c-.7343.3125-.0708,1.5224-.0708,1.5224Z" transform="translate(-4.96505 -7.99171)"/><path class="cls-19" d="M108.39738,194.64891c-.501,2.0293-.793,2.0459-.9273,2.0537l-.0136.001c-.2276,0-.3409-.3194-.4073-.5625a7.802,7.802,0,0,1-.2158-2.0313,21.53215,21.53215,0,0,1,.4678-4.0048c.0039-.0186.0137-.0791.0151-.086l.1153.0293h0l.1113.0166a22.22516,22.22516,0,0,0-.479,4.1582,7.37412,7.37412,0,0,0,.206,1.8594c.1016.3721.1866.3916.188.3916.0166-.001.1045-.0244.2588-.3848a9.91949,9.91949,0,0,0,.4546-1.4775C108.24938,194.62741,108.32508,194.64111,108.39738,194.64891Z" transform="translate(-4.96505 -7.99171)"/><path class="cls-59" d="M179.93423,159.2929h109.4664a6.5913,6.5913,0,0,1,6.5913,6.5913v82.0816a6.5918,6.5918,0,0,1-6.5918,6.5918H179.93333a6.5909,6.5909,0,0,1-6.5909-6.5909v-82.082A6.5918,6.5918,0,0,1,179.93423,159.2929Z"/><rect class="cls-14" x="230.78193" y="172.2998" width="53.79" height="24.4941"/><rect class="cls-12" x="181.92593" y="172.2998" width="41.4439" height="3.4756"/><rect class="cls-12" x="181.92593" y="180.4306" width="30.8667" height="3.4756"/><rect class="cls-12" x="181.92593" y="188.5615" width="35.1499" height="3.4756"/><path class="cls-14" d="M290.537,256.10691H185.891v-44.1855H290.537Zm-102.646-2H288.537v-40.1855H187.891Z" transform="translate(-4.96505 -7.99171)"/><path class="cls-17" d="M237.39048,158.21041s6.9991,1.25,7.0611,7.1778c.062,5.9267-5.3609,14.5127-8.8858,13.8769-3.5249-.6348-7.5337-3.7646-7.3974-7.3701s1.1352-8.3428,2.7602-10.9434C232.55358,158.352,235.435,158.08151,237.39048,158.21041Z" transform="translate(-4.96505 -7.99171)"/><path class="cls-60" d="M228.41248,169.14991s.0127,1.2099,2.4204,2.1679c2.4082.9581,6.8301-.3837,7.9405-.1611,1.1103.2217,1.4389-.3135,1.4389-.3135l.0786,1.1827.9405.6396s.6601-3.1494,2.6372-3.4238c1.977-.2735,3.6255-9.3135-4.9019-11.0235,0,0-6.3125-1.7148-7.9409,1.4883C229.39688,162.91061,228.10728,166.894,228.41248,169.14991Z" transform="translate(-4.96505 -7.99171)"/><path class="cls-17" d="M250.43208,204.65091a2.11194,2.11194,0,0,0,1.0859-.4961c.6894-.7022.7534-2.1875,2.1406-2.2872,1.3872-.1005,2.6675,4.1055,2.4458,4.9717-.2217.8653-2.0654,1.5576-4.9643,1.419C248.24108,208.11861,250.43208,204.65091,250.43208,204.65091Z" transform="translate(-4.96505 -7.99171)"/><path class="cls-17" d="M253.19228,201.96731a43.55051,43.55051,0,0,1,4.0732-1.7998c1.9327-.7315,4.3213-1.25,4.5811-.918.5771.7383-1.6768,1.2588-3.5503,2.1074a15.15019,15.15019,0,0,0-1.4282.6553s-.1279-.042,1.9004-.542c2.1802-.5381,4.458-.874,4.749-.4658.1416.1982.3965.8906-.5186.8613.4756-.0928.4014-.165.4483.0244.2441.9824-2.8633,2.2578-4.0972,2.7647.9502-.3838,1.6831-.5674,1.4287.1533-.2915.8242-4.7558,2.4365-6.3066,3.1631C252.78018,208.76321,253.19228,201.96731,253.19228,201.96731Z" transform="translate(-4.96505 -7.99171)"/><path class="cls-18" d="M220.04578,175.66451a53.06317,53.06317,0,0,0-7.4604,0c-3.0865.3164-7.3511,2.8418-9.9326,3.5713s-8.8106,4.916-8.6421,5.4883a46.50713,46.50713,0,0,0,7.0424,12.918C204.872,202.37741,220.04578,175.66451,220.04578,175.66451Z" transform="translate(-4.96505 -7.99171)"/><path class="cls-61" d="M210.60828,178.40961s-4.7148,3.4913-6.3564,6.6905a25.8708,25.8708,0,0,0-2.2012,7.0097Z" transform="translate(-4.96505 -7.99171)"/><path class="cls-2" d="M214.18158,282.36471a11.43724,11.43724,0,0,0,2.1255,1.8096c.7788.3789,10.08,1.9785,10.7114,2.7363.6313.7569.6313,3.7451-1.7676,3.7451s-10.396-.042-11.7427,0-7.0361,1.1787-7.6216,0c-.5854-1.1777-.5312-6.6777.5088-7.9961S214.18158,282.36471,214.18158,282.36471Z" transform="translate(-4.96505 -7.99171)"/><path class="cls-62" d="M213.89538,280.69281l.2862,1.6719s-2.4834,1.1367-7.7862.2949v-1.7255Z" transform="translate(-4.96505 -7.99171)"/><path class="cls-17" d="M228.17908,172.43991s-4.2344,3.5967-5.4394,3.3027,4.1528,7.6075,4.1528,7.6075,5.1016-5.0215,6.251-5.1729C234.29288,178.02491,228.17908,172.43991,228.17908,172.43991Z" transform="translate(-4.96505 -7.99171)"/><path class="cls-18" d="M228.46668,186.643c-1.4414.8702-1.6836,1.1504-1.5151,5.2754.1684,4.1241,1.8799,7.4492,2.0058,8.586.1265,1.1367,2.417,12.4082,3.0484,13.039.6313.6319,8.1772-.8398,9.7031-1.3125,2.2847-.707,11.9531-3.9824,11.9531-3.9824l-2.1264-4.4346s-12.2056,2.7217-12.5987,1.7676c-.3925-.9541-1.3486-8.9658-1.685-10.7051-.3369-1.7392.2495-4.4736-1.8286-8.5996C233.56288,182.58151,228.46668,186.643,228.46668,186.643Z" transform="translate(-4.96505 -7.99171)"/><path class="cls-54" d="M214.15518,217.67431s2.5869,2.7529,3.311,3.6474a144.2586,144.2586,0,0,1,12.5425,19.3331c.8418,1.9638-4.1699,15.8544-6.229,20.707-1.0801,2.5449-8.2212,20.0771-7.9971,20.4697.2246.3926-7.5547.6524-11.0337-1.1435,0,0,5.002-14.8213,6.0557-17.7266,1.5918-4.3887,7.1099-16.543,7.2783-17.7217.168-1.1787-8.9209-10.8965-11.9511-12.749-3.0303-1.8516-10.4375-8.417-11.2793-9.2588s-5.6119-3.0869-5.1631-7.3516a14.91392,14.91392,0,0,1,3.6196-7.6318Z" transform="translate(-4.96505 -7.99171)"/><path class="cls-54" d="M200.55658,228.227s-.4732,1.2451-1.1377,2.9912c-1.4278,3.7491-3.7344,9.7998-4.1182,10.7559-.5605,1.4043-3.3672,7.4648-4.7139,8.6435s-23.5122,27.7784-23.5693,28.002c-.0557.2236-10.6074-1.4443-11.1128-3.0723,0,0,14.3115-18.2529,16.1636-20.5527,1.8515-2.3018,5.7236-5.7236,7.0151-11.168,1.291-5.4433,10.5474-26.374,10.5757-27.1601,0,0,1.4902-6.4531,3.6499-8.418,2.1602-1.9648,10.0171.3369,11.251,4.4326C205.79578,216.77881,200.55658,228.227,200.55658,228.227Z" transform="translate(-4.96505 -7.99171)"/><path class="cls-63" d="M222.35638,175.70461l1.789-.7061a13.44,13.44,0,0,1,7.127,4.6582l-.2246,1.082S224.15908,179.24461,222.35638,175.70461Z" transform="translate(-4.96505 -7.99171)"/><path class="cls-64" d="M229.25378,202.05511a7.17651,7.17651,0,0,1-.8432,1.0303c-.128.1104-.2827.2403-.4615.3848l-.0034.0019-.1699-6.788s.8521,2.6162.978,3.0039C228.88178,200.07661,229.25378,202.05511,229.25378,202.05511Z" transform="translate(-4.96505 -7.99171)"/><path class="cls-65" d="M200.55658,228.227s-.4732,1.2451-1.1377,2.9912c-1.5088-1.7353-4.9517-8.2978-4.9517-8.2978.2241.1601.9448.8369,1.1113.9863C195.74358,224.05811,200.55658,228.227,200.55658,228.227Z" transform="translate(-4.96505 -7.99171)"/><path class="cls-17" d="M239.10638,170.62351c.1591-.5137-.2251-2.4795-1.4795-1.3603s-1.2495,3.6259-.541,3.83C237.79388,173.29831,238.70348,171.92721,239.10638,170.62351Z" transform="translate(-4.96505 -7.99171)"/><path class="cls-60" d="M234.41638,159.58931s-6.0737-4.3183-6.1074,10.4063Z" transform="translate(-4.96505 -7.99171)"/><path class="cls-18" d="M229.25378,202.05511a7.17651,7.17651,0,0,1-.8432,1.0303c-.128.1104-.2827.2403-.4615.3848l-.0034.0019a71.06492,71.06492,0,0,1-7.3349,5c-1.9649,1.0674-5.689,10.0528-5.689,10.0528s-17.5723-1.1856-21.6128-10.2764a80.39187,80.39187,0,0,1,5.4712-10.1855c2.6099-3.7881,8.334-17.4248,11.3643-19.3604,3.0302-1.9365,5.6396-3.1982,11.6162-3.0303a12.531,12.531,0,0,1,9.288,4.9112s4.5455,4.8818,4.9932,7.4629C236.42908,190.26711,231.49458,198.93211,229.25378,202.05511Z" transform="translate(-4.96505 -7.99171)"/><circle class="cls-66" cx="250.28293" cy="133.0986" r="12.67509"/><text class="cls-67" transform="translate(243.99558 138.02177)">%</text></svg>